<?xml version="1.0" encoding="UTF-8"?>
<svg xmlns="http://www.w3.org/2000/svg" xmlns:xlink="http://www.w3.org/1999/xlink" width="200px" height="56px" viewBox="0 0 199 56" version="1.1">
<g id="surface1">
<path style=" stroke:none;fill-rule:nonzero;fill:rgb(100%,86.666667%,0%);fill-opacity:1;" d="M 0 8.960938 C 0 4.011719 4.003906 0 8.941406 0 L 189.96875 0 C 194.90625 0 198.90625 4.011719 198.90625 8.960938 L 198.90625 47.039062 C 198.90625 51.988281 194.90625 56 189.96875 56 L 8.941406 56 C 4.003906 56 0 51.988281 0 47.039062 Z M 0 8.960938 "/>
<path style=" stroke:none;fill-rule:nonzero;fill:rgb(5.098039%,4.705882%,13.333333%);fill-opacity:1;" d="M 39.996094 18.417969 L 39.972656 18.402344 L 39.914062 18.386719 C 39.9375 18.40625 39.964844 18.414062 39.996094 18.417969 Z M 39.996094 18.417969 "/>
<path style=" stroke:none;fill-rule:nonzero;fill:rgb(5.098039%,4.705882%,13.333333%);fill-opacity:1;" d="M 40.355469 20.976562 L 40.328125 20.984375 Z M 40.355469 20.976562 "/>
<path style=" stroke:none;fill-rule:nonzero;fill:rgb(5.098039%,4.705882%,13.333333%);fill-opacity:1;" d="M 40.007812 18.414062 C 40.003906 18.414062 40 18.410156 39.996094 18.410156 C 39.996094 18.414062 39.996094 18.414062 39.996094 18.417969 C 40 18.417969 40.003906 18.414062 40.007812 18.414062 Z M 40.007812 18.414062 "/>
<path style=" stroke:none;fill-rule:nonzero;fill:rgb(5.098039%,4.705882%,13.333333%);fill-opacity:1;" d="M 39.996094 18.417969 L 40.003906 18.417969 L 40.003906 18.414062 Z M 39.996094 18.417969 "/>
<path style=" stroke:none;fill-rule:nonzero;fill:rgb(5.098039%,4.705882%,13.333333%);fill-opacity:1;" d="M 40.332031 20.972656 L 40.375 20.949219 L 40.390625 20.941406 L 40.40625 20.925781 C 40.378906 20.9375 40.355469 20.953125 40.332031 20.972656 Z M 40.332031 20.972656 "/>
<path style=" stroke:none;fill-rule:nonzero;fill:rgb(5.098039%,4.705882%,13.333333%);fill-opacity:1;" d="M 40.066406 18.472656 L 40.027344 18.433594 L 40 18.417969 C 40.011719 18.445312 40.039062 18.464844 40.066406 18.472656 Z M 40.066406 18.472656 "/>
<path style=" stroke:none;fill-rule:nonzero;fill:rgb(5.098039%,4.705882%,13.333333%);fill-opacity:1;" d="M 29.902344 43.320312 C 29.871094 43.332031 29.84375 43.355469 29.820312 43.382812 L 29.84375 43.367188 C 29.863281 43.351562 29.886719 43.332031 29.902344 43.320312 Z M 29.902344 43.320312 "/>
<path style=" stroke:none;fill-rule:nonzero;fill:rgb(5.098039%,4.705882%,13.333333%);fill-opacity:1;" d="M 35.804688 42.15625 C 35.804688 42.117188 35.785156 42.125 35.792969 42.253906 C 35.792969 42.246094 35.796875 42.234375 35.796875 42.222656 C 35.800781 42.199219 35.800781 42.179688 35.804688 42.15625 Z M 35.804688 42.15625 "/>
<path style=" stroke:none;fill-rule:nonzero;fill:rgb(5.098039%,4.705882%,13.333333%);fill-opacity:1;" d="M 35.195312 43.320312 C 35.164062 43.332031 35.136719 43.355469 35.113281 43.382812 L 35.140625 43.367188 C 35.15625 43.351562 35.179688 43.332031 35.195312 43.320312 Z M 35.195312 43.320312 "/>
<path style=" stroke:none;fill-rule:nonzero;fill:rgb(5.098039%,4.705882%,13.333333%);fill-opacity:1;" d="M 25.742188 43.59375 C 25.714844 43.574219 25.6875 43.558594 25.652344 43.554688 C 25.679688 43.566406 25.707031 43.582031 25.722656 43.589844 Z M 25.742188 43.59375 "/>
<path style=" stroke:none;fill-rule:nonzero;fill:rgb(5.098039%,4.705882%,13.333333%);fill-opacity:1;" d="M 24.808594 42.699219 C 24.804688 42.660156 24.792969 42.625 24.773438 42.589844 C 24.785156 42.625 24.796875 42.660156 24.804688 42.695312 Z M 24.808594 42.699219 "/>
<path style=" stroke:none;fill-rule:nonzero;fill:rgb(100%,100%,100%);fill-opacity:1;" d="M 31.09375 26.636719 C 29.808594 27.1875 28.351562 27.8125 26.460938 27.8125 C 25.671875 27.8125 24.882812 27.703125 24.125 27.488281 L 25.429688 40.933594 C 25.476562 41.496094 25.730469 42.019531 26.144531 42.402344 C 26.558594 42.785156 27.101562 42.996094 27.664062 42.996094 C 27.664062 42.996094 29.515625 43.09375 30.132812 43.09375 C 30.800781 43.09375 32.792969 42.996094 32.792969 42.996094 C 33.355469 42.996094 33.898438 42.785156 34.3125 42.402344 C 34.726562 42.019531 34.980469 41.496094 35.027344 40.933594 L 36.425781 26.078125 C 35.800781 25.863281 35.171875 25.71875 34.460938 25.71875 C 33.230469 25.71875 32.238281 26.144531 31.09375 26.636719 Z M 31.09375 26.636719 "/>
<path style=" stroke:none;fill-rule:nonzero;fill:rgb(5.098039%,4.705882%,13.333333%);fill-opacity:1;" d="M 20.078125 20.898438 L 20.101562 20.921875 L 20.117188 20.929688 C 20.105469 20.917969 20.09375 20.910156 20.078125 20.898438 Z M 20.078125 20.898438 "/>
<path style=" stroke:none;fill-rule:nonzero;fill:rgb(5.098039%,4.705882%,13.333333%);fill-opacity:1;" d="M 42.472656 19.660156 L 42.273438 18.664062 C 42.097656 17.773438 41.699219 16.929688 40.785156 16.605469 C 40.492188 16.503906 40.15625 16.457031 39.933594 16.246094 C 39.707031 16.03125 39.640625 15.699219 39.589844 15.390625 C 39.496094 14.828125 39.402344 14.261719 39.304688 13.699219 C 39.21875 13.214844 39.152344 12.671875 38.929688 12.226562 C 38.640625 11.628906 38.042969 11.28125 37.449219 11.046875 C 37.144531 10.933594 36.832031 10.835938 36.515625 10.757812 C 35.027344 10.367188 33.460938 10.222656 31.933594 10.140625 C 30.09375 10.035156 28.253906 10.066406 26.417969 10.230469 C 25.054688 10.355469 23.617188 10.503906 22.320312 10.976562 C 21.847656 11.152344 21.359375 11.359375 21 11.726562 C 20.558594 12.175781 20.414062 12.875 20.734375 13.4375 C 20.964844 13.835938 21.355469 14.117188 21.765625 14.304688 C 22.304688 14.542969 22.863281 14.726562 23.4375 14.851562 C 25.042969 15.203125 26.699219 15.34375 28.335938 15.402344 C 30.152344 15.476562 31.96875 15.417969 33.773438 15.226562 C 34.21875 15.175781 34.664062 15.117188 35.109375 15.046875 C 35.632812 14.96875 35.96875 14.28125 35.816406 13.804688 C 35.632812 13.230469 35.132812 13.007812 34.574219 13.097656 C 34.492188 13.109375 34.40625 13.121094 34.324219 13.132812 L 34.265625 13.140625 C 34.074219 13.164062 33.886719 13.1875 33.695312 13.210938 C 33.300781 13.25 32.910156 13.285156 32.511719 13.3125 C 31.628906 13.375 30.742188 13.402344 29.855469 13.40625 C 28.984375 13.40625 28.113281 13.378906 27.246094 13.324219 C 26.851562 13.296875 26.453125 13.265625 26.058594 13.222656 C 25.878906 13.203125 25.703125 13.183594 25.523438 13.164062 L 25.351562 13.140625 L 25.316406 13.136719 L 25.136719 13.109375 C 24.777344 13.054688 24.417969 12.992188 24.058594 12.917969 C 24.023438 12.910156 23.992188 12.890625 23.96875 12.859375 C 23.945312 12.832031 23.933594 12.796875 23.933594 12.757812 C 23.933594 12.722656 23.945312 12.6875 23.96875 12.65625 C 23.992188 12.628906 24.023438 12.609375 24.058594 12.601562 L 24.066406 12.601562 C 24.375 12.535156 24.6875 12.476562 25 12.429688 C 25.105469 12.410156 25.210938 12.394531 25.3125 12.378906 L 25.316406 12.378906 C 25.511719 12.367188 25.710938 12.332031 25.902344 12.308594 C 27.597656 12.132812 29.304688 12.070312 31.007812 12.128906 C 31.835938 12.152344 32.660156 12.203125 33.484375 12.285156 C 33.660156 12.304688 33.835938 12.324219 34.011719 12.34375 C 34.082031 12.351562 34.148438 12.363281 34.214844 12.371094 L 34.351562 12.390625 C 34.75 12.449219 35.148438 12.523438 35.542969 12.605469 C 36.125 12.734375 36.875 12.777344 37.136719 13.417969 C 37.21875 13.621094 37.257812 13.847656 37.300781 14.058594 L 37.359375 14.332031 C 37.363281 14.335938 37.363281 14.34375 37.363281 14.347656 C 37.5 14.992188 37.636719 15.632812 37.777344 16.277344 C 37.785156 16.324219 37.785156 16.371094 37.777344 16.421875 C 37.765625 16.46875 37.75 16.511719 37.71875 16.550781 C 37.691406 16.59375 37.65625 16.625 37.617188 16.652344 C 37.574219 16.675781 37.527344 16.691406 37.480469 16.699219 L 37.476562 16.699219 L 37.390625 16.710938 L 37.308594 16.722656 C 37.046875 16.757812 36.78125 16.789062 36.515625 16.820312 C 35.996094 16.878906 35.476562 16.929688 34.953125 16.972656 C 33.914062 17.058594 32.875 17.117188 31.835938 17.144531 C 31.304688 17.15625 30.773438 17.164062 30.242188 17.164062 C 28.132812 17.160156 26.023438 17.039062 23.925781 16.792969 C 23.695312 16.769531 23.46875 16.738281 23.242188 16.710938 C 23.417969 16.730469 23.113281 16.691406 23.054688 16.683594 C 22.910156 16.664062 22.765625 16.640625 22.621094 16.621094 C 22.136719 16.546875 21.65625 16.457031 21.171875 16.378906 C 20.585938 16.28125 20.027344 16.332031 19.5 16.621094 C 19.066406 16.859375 18.714844 17.222656 18.492188 17.667969 C 18.265625 18.140625 18.195312 18.652344 18.09375 19.160156 C 17.992188 19.667969 17.832031 20.214844 17.894531 20.738281 C 18.023438 21.863281 18.808594 22.777344 19.9375 22.980469 C 20.996094 23.171875 22.066406 23.328125 23.136719 23.460938 C 27.339844 23.976562 31.589844 24.039062 35.804688 23.644531 C 36.148438 23.613281 36.492188 23.578125 36.835938 23.542969 C 36.941406 23.53125 37.050781 23.542969 37.152344 23.578125 C 37.253906 23.613281 37.347656 23.671875 37.421875 23.746094 C 37.5 23.824219 37.558594 23.914062 37.59375 24.015625 C 37.628906 24.117188 37.644531 24.226562 37.632812 24.332031 L 37.523438 25.375 C 37.308594 27.476562 37.09375 29.578125 36.878906 31.679688 C 36.65625 33.890625 36.429688 36.097656 36.203125 38.304688 C 36.136719 38.925781 36.074219 39.546875 36.007812 40.167969 C 35.949219 40.78125 35.9375 41.410156 35.824219 42.015625 C 35.640625 42.96875 34.996094 43.550781 34.0625 43.765625 C 33.203125 43.960938 32.324219 44.0625 31.445312 44.070312 C 30.46875 44.078125 29.492188 44.03125 28.515625 44.039062 C 27.476562 44.042969 26.199219 43.949219 25.394531 43.171875 C 24.6875 42.488281 24.589844 41.417969 24.492188 40.496094 C 24.367188 39.269531 24.238281 38.046875 24.113281 36.824219 L 23.40625 30.019531 L 22.949219 25.621094 C 22.941406 25.546875 22.933594 25.476562 22.925781 25.402344 C 22.871094 24.875 22.5 24.363281 21.914062 24.390625 C 21.414062 24.410156 20.847656 24.835938 20.90625 25.402344 L 21.242188 28.664062 L 21.945312 35.414062 C 22.144531 37.332031 22.34375 39.25 22.542969 41.167969 C 22.582031 41.535156 22.617188 41.902344 22.65625 42.269531 C 22.878906 44.277344 24.40625 45.359375 26.300781 45.664062 C 27.410156 45.84375 28.542969 45.878906 29.664062 45.898438 C 31.105469 45.921875 32.558594 45.976562 33.972656 45.714844 C 36.070312 45.332031 37.644531 43.925781 37.871094 41.75 C 37.933594 41.121094 38 40.492188 38.0625 39.863281 C 38.277344 37.78125 38.488281 35.699219 38.703125 33.621094 L 39.398438 26.820312 L 39.714844 23.707031 C 39.730469 23.550781 39.796875 23.40625 39.902344 23.292969 C 40.007812 23.175781 40.144531 23.097656 40.296875 23.070312 C 40.898438 22.953125 41.46875 22.753906 41.898438 22.296875 C 42.578125 21.566406 42.710938 20.617188 42.472656 19.660156 Z M 19.90625 20.332031 C 19.914062 20.328125 19.898438 20.40625 19.890625 20.441406 C 19.890625 20.386719 19.890625 20.335938 19.90625 20.332031 Z M 19.964844 20.78125 C 19.96875 20.78125 19.984375 20.796875 19.996094 20.820312 C 19.976562 20.800781 19.960938 20.785156 19.964844 20.78125 Z M 20.019531 20.859375 C 20.042969 20.894531 20.050781 20.914062 20.019531 20.859375 Z M 20.136719 20.953125 L 20.140625 20.953125 C 20.140625 20.957031 20.144531 20.957031 20.144531 20.960938 C 20.144531 20.957031 20.140625 20.953125 20.136719 20.953125 Z M 40.269531 20.8125 C 40.054688 21.015625 39.730469 21.113281 39.410156 21.160156 C 35.808594 21.695312 32.160156 21.96875 28.519531 21.847656 C 25.917969 21.757812 23.339844 21.46875 20.765625 21.101562 C 20.511719 21.066406 20.238281 21.019531 20.0625 20.835938 C 19.738281 20.484375 19.898438 19.773438 19.984375 19.347656 C 20.0625 18.960938 20.210938 18.441406 20.671875 18.382812 C 21.394531 18.300781 22.230469 18.605469 22.945312 18.714844 C 23.804688 18.84375 24.667969 18.949219 25.535156 19.027344 C 29.230469 19.367188 32.988281 19.3125 36.667969 18.820312 C 37.335938 18.730469 38.003906 18.625 38.671875 18.503906 C 39.265625 18.398438 39.921875 18.199219 40.28125 18.816406 C 40.527344 19.234375 40.558594 19.796875 40.519531 20.269531 C 40.507812 20.476562 40.417969 20.671875 40.269531 20.8125 Z M 40.269531 20.8125 "/>
<path style=" stroke:none;fill-rule:evenodd;fill:rgb(5.098039%,4.705882%,13.72549%);fill-opacity:1;" d="M 62.097656 30.832031 C 61.886719 31.234375 61.597656 31.585938 61.230469 31.882812 C 60.863281 32.179688 60.433594 32.421875 59.941406 32.609375 C 59.453125 32.792969 58.957031 32.917969 58.460938 32.984375 C 57.964844 33.046875 57.484375 33.042969 57.019531 32.964844 C 56.550781 32.890625 56.152344 32.734375 55.828125 32.503906 L 56.195312 28.671875 C 56.535156 28.558594 56.960938 28.4375 57.472656 28.316406 C 57.988281 28.191406 58.515625 28.105469 59.058594 28.054688 C 59.601562 28 60.113281 28.007812 60.597656 28.070312 C 61.082031 28.132812 61.464844 28.289062 61.746094 28.535156 C 61.898438 28.671875 62.027344 28.824219 62.132812 28.988281 C 62.234375 29.152344 62.300781 29.320312 62.324219 29.496094 C 62.382812 29.984375 62.304688 30.429688 62.097656 30.832031 Z M 56.753906 22.675781 C 57 22.523438 57.296875 22.390625 57.640625 22.273438 C 57.984375 22.15625 58.335938 22.074219 58.699219 22.027344 C 59.0625 21.984375 59.414062 21.976562 59.757812 22.011719 C 60.101562 22.046875 60.40625 22.144531 60.667969 22.300781 C 60.929688 22.457031 61.125 22.683594 61.253906 22.980469 C 61.382812 23.28125 61.417969 23.65625 61.359375 24.109375 C 61.3125 24.472656 61.171875 24.777344 60.929688 25.027344 C 60.691406 25.277344 60.398438 25.488281 60.054688 25.65625 C 59.710938 25.828125 59.347656 25.960938 58.960938 26.058594 C 58.578125 26.160156 58.207031 26.230469 57.851562 26.277344 C 57.492188 26.324219 57.183594 26.355469 56.921875 26.367188 C 56.660156 26.378906 56.488281 26.382812 56.40625 26.382812 Z M 63.988281 28.359375 C 63.800781 27.949219 63.550781 27.59375 63.234375 27.285156 C 62.917969 26.972656 62.546875 26.75 62.113281 26.609375 C 62.300781 26.457031 62.484375 26.21875 62.664062 25.894531 C 62.84375 25.566406 63 25.210938 63.128906 24.828125 C 63.257812 24.441406 63.34375 24.054688 63.390625 23.664062 C 63.4375 23.273438 63.421875 22.9375 63.339844 22.660156 C 63.140625 21.960938 62.828125 21.410156 62.402344 21.015625 C 61.976562 20.617188 61.480469 20.34375 60.914062 20.191406 C 60.347656 20.042969 59.722656 20.011719 59.039062 20.097656 C 58.359375 20.183594 57.660156 20.355469 56.949219 20.613281 C 56.949219 20.554688 56.953125 20.492188 56.964844 20.429688 C 56.976562 20.367188 56.984375 20.296875 56.984375 20.226562 C 56.984375 20.054688 56.894531 19.902344 56.71875 19.773438 C 56.546875 19.644531 56.34375 19.570312 56.117188 19.546875 C 55.890625 19.523438 55.667969 19.574219 55.453125 19.695312 C 55.234375 19.816406 55.085938 20.042969 55.003906 20.367188 C 54.910156 21.417969 54.816406 22.507812 54.726562 23.636719 C 54.632812 24.769531 54.53125 25.910156 54.425781 27.066406 C 54.320312 28.21875 54.21875 29.363281 54.113281 30.5 C 54.007812 31.636719 53.902344 32.730469 53.796875 33.777344 C 53.832031 34.09375 53.917969 34.339844 54.058594 34.511719 C 54.199219 34.6875 54.363281 34.792969 54.550781 34.828125 C 54.734375 34.863281 54.933594 34.832031 55.136719 34.730469 C 55.339844 34.632812 55.519531 34.460938 55.671875 34.214844 C 56.136719 34.472656 56.664062 34.640625 57.246094 34.714844 C 57.828125 34.789062 58.421875 34.789062 59.023438 34.714844 C 59.625 34.640625 60.214844 34.496094 60.800781 34.285156 C 61.382812 34.078125 61.914062 33.8125 62.394531 33.5 C 62.871094 33.183594 63.273438 32.824219 63.601562 32.425781 C 63.929688 32.023438 64.144531 31.585938 64.25 31.121094 C 64.355469 30.644531 64.382812 30.164062 64.335938 29.6875 C 64.289062 29.210938 64.171875 28.765625 63.988281 28.359375 Z M 63.988281 28.359375 "/>
<path style=" stroke:none;fill-rule:evenodd;fill:rgb(5.098039%,4.705882%,13.72549%);fill-opacity:1;" d="M 81.066406 37.589844 C 81.003906 37.976562 80.910156 38.378906 80.792969 38.804688 C 80.675781 39.230469 80.539062 39.617188 80.382812 39.96875 C 80.226562 40.316406 80.050781 40.601562 79.859375 40.816406 C 79.664062 41.03125 79.457031 41.121094 79.238281 41.085938 C 79.0625 41.0625 78.949219 40.953125 78.902344 40.753906 C 78.855469 40.558594 78.855469 40.3125 78.902344 40.019531 C 78.949219 39.730469 79.039062 39.398438 79.175781 39.03125 C 79.308594 38.664062 79.472656 38.300781 79.664062 37.941406 C 79.859375 37.578125 80.078125 37.230469 80.320312 36.898438 C 80.566406 36.566406 80.824219 36.289062 81.09375 36.070312 C 81.152344 36.140625 81.175781 36.3125 81.171875 36.59375 C 81.164062 36.875 81.128906 37.207031 81.066406 37.589844 Z M 87 30.003906 C 86.84375 29.828125 86.652344 29.726562 86.421875 29.703125 C 86.195312 29.679688 85.964844 29.808594 85.730469 30.089844 C 85.578125 30.367188 85.386719 30.636719 85.15625 30.894531 C 84.921875 31.148438 84.679688 31.382812 84.425781 31.59375 C 84.175781 31.804688 83.9375 31.984375 83.710938 32.136719 C 83.480469 32.285156 83.304688 32.398438 83.175781 32.46875 C 83.128906 32.09375 83.101562 31.691406 83.097656 31.261719 C 83.089844 30.828125 83.101562 30.394531 83.125 29.949219 C 83.160156 29.320312 83.230469 28.683594 83.34375 28.042969 C 83.453125 27.402344 83.613281 26.773438 83.824219 26.15625 C 83.824219 25.828125 83.746094 25.5625 83.597656 25.359375 C 83.445312 25.15625 83.261719 25.027344 83.042969 24.976562 C 82.828125 24.921875 82.605469 24.953125 82.378906 25.0625 C 82.152344 25.171875 81.957031 25.375 81.792969 25.664062 C 81.652344 26.050781 81.492188 26.480469 81.3125 26.960938 C 81.128906 27.4375 80.925781 27.925781 80.699219 28.417969 C 80.472656 28.914062 80.21875 29.394531 79.9375 29.863281 C 79.65625 30.328125 79.351562 30.742188 79.015625 31.105469 C 78.683594 31.464844 78.324219 31.746094 77.933594 31.953125 C 77.542969 32.15625 77.117188 32.246094 76.664062 32.222656 C 76.453125 32.164062 76.300781 32.007812 76.207031 31.75 C 76.113281 31.496094 76.058594 31.171875 76.042969 30.789062 C 76.023438 30.402344 76.042969 29.980469 76.09375 29.519531 C 76.144531 29.0625 76.214844 28.601562 76.304688 28.148438 C 76.390625 27.695312 76.488281 27.261719 76.59375 26.855469 C 76.699219 26.445312 76.796875 26.101562 76.890625 25.824219 C 77.03125 25.484375 77.03125 25.203125 76.890625 24.976562 C 76.75 24.746094 76.558594 24.597656 76.3125 24.519531 C 76.066406 24.445312 75.808594 24.449219 75.542969 24.527344 C 75.273438 24.609375 75.082031 24.792969 74.964844 25.070312 C 74.765625 25.550781 74.585938 26.085938 74.421875 26.679688 C 74.257812 27.273438 74.125 27.890625 74.027344 28.523438 C 73.929688 29.160156 73.871094 29.789062 73.859375 30.414062 C 73.859375 30.453125 73.863281 30.492188 73.863281 30.53125 C 73.609375 31.210938 73.363281 31.722656 73.136719 32.066406 C 72.835938 32.507812 72.5 32.699219 72.128906 32.640625 C 71.964844 32.574219 71.855469 32.410156 71.804688 32.152344 C 71.75 31.894531 71.734375 31.582031 71.75 31.207031 C 71.769531 30.835938 71.8125 30.414062 71.882812 29.941406 C 71.953125 29.46875 72.039062 28.980469 72.144531 28.472656 C 72.25 27.964844 72.363281 27.457031 72.476562 26.941406 C 72.59375 26.429688 72.699219 25.945312 72.792969 25.492188 C 72.78125 25.082031 72.660156 24.769531 72.433594 24.554688 C 72.207031 24.339844 71.886719 24.253906 71.480469 24.300781 C 71.199219 24.417969 70.992188 24.570312 70.859375 24.757812 C 70.722656 24.941406 70.617188 25.183594 70.535156 25.472656 C 70.488281 25.625 70.417969 25.929688 70.324219 26.382812 C 70.230469 26.835938 70.113281 27.359375 69.964844 27.949219 C 69.820312 28.535156 69.648438 29.152344 69.449219 29.792969 C 69.25 30.433594 69.027344 31.011719 68.785156 31.53125 C 68.539062 32.050781 68.269531 32.46875 67.976562 32.78125 C 67.6875 33.097656 67.371094 33.226562 67.03125 33.167969 C 66.847656 33.132812 66.726562 32.9375 66.675781 32.589844 C 66.621094 32.238281 66.613281 31.808594 66.648438 31.296875 C 66.683594 30.78125 66.753906 30.21875 66.859375 29.609375 C 66.964844 28.996094 67.070312 28.417969 67.183594 27.867188 C 67.292969 27.320312 67.394531 26.835938 67.488281 26.417969 C 67.582031 25.996094 67.644531 25.71875 67.679688 25.578125 C 67.679688 25.242188 67.605469 24.96875 67.453125 24.765625 C 67.300781 24.5625 67.117188 24.433594 66.902344 24.378906 C 66.683594 24.328125 66.464844 24.355469 66.238281 24.46875 C 66.007812 24.578125 65.8125 24.78125 65.648438 25.070312 C 65.589844 25.386719 65.515625 25.75 65.421875 26.164062 C 65.328125 26.578125 65.238281 27.003906 65.152344 27.441406 C 65.0625 27.878906 64.980469 28.304688 64.90625 28.726562 C 64.828125 29.144531 64.773438 29.511719 64.738281 29.828125 C 64.714844 30.070312 64.691406 30.371094 64.660156 30.726562 C 64.632812 31.082031 64.617188 31.460938 64.617188 31.855469 C 64.617188 32.25 64.644531 32.644531 64.703125 33.035156 C 64.761719 33.425781 64.867188 33.785156 65.019531 34.109375 C 65.171875 34.4375 65.382812 34.707031 65.660156 34.914062 C 65.933594 35.125 66.28125 35.242188 66.699219 35.265625 C 67.132812 35.289062 67.507812 35.257812 67.828125 35.167969 C 68.152344 35.082031 68.441406 34.945312 68.703125 34.757812 C 68.96875 34.570312 69.207031 34.351562 69.421875 34.09375 C 69.636719 33.835938 69.851562 33.558594 70.0625 33.253906 C 70.261719 33.699219 70.515625 34.039062 70.832031 34.285156 C 71.148438 34.53125 71.480469 34.675781 71.832031 34.722656 C 72.179688 34.769531 72.535156 34.71875 72.898438 34.574219 C 73.261719 34.429688 73.585938 34.179688 73.878906 33.832031 C 74.070312 33.617188 74.253906 33.371094 74.421875 33.101562 C 74.496094 33.230469 74.570312 33.351562 74.65625 33.464844 C 74.945312 33.835938 75.332031 34.09375 75.824219 34.234375 C 76.347656 34.375 76.859375 34.398438 77.363281 34.304688 C 77.863281 34.210938 78.34375 34.039062 78.796875 33.796875 C 79.253906 33.550781 79.675781 33.257812 80.070312 32.914062 C 80.457031 32.570312 80.800781 32.210938 81.09375 31.835938 C 81.082031 32.105469 81.074219 32.359375 81.074219 32.597656 C 81.074219 32.835938 81.070312 33.097656 81.058594 33.375 C 80.472656 33.785156 79.921875 34.273438 79.402344 34.84375 C 78.882812 35.417969 78.429688 36.023438 78.035156 36.671875 C 77.644531 37.320312 77.339844 37.976562 77.117188 38.640625 C 76.894531 39.304688 76.789062 39.925781 76.792969 40.5 C 76.800781 41.078125 76.9375 41.582031 77.207031 42.015625 C 77.472656 42.445312 77.910156 42.753906 78.519531 42.941406 C 79.148438 43.140625 79.703125 43.144531 80.183594 42.957031 C 80.660156 42.773438 81.078125 42.460938 81.433594 42.03125 C 81.789062 41.601562 82.082031 41.078125 82.308594 40.464844 C 82.535156 39.855469 82.71875 39.214844 82.851562 38.550781 C 82.984375 37.886719 83.070312 37.234375 83.105469 36.59375 C 83.140625 35.953125 83.140625 35.382812 83.105469 34.878906 C 84.109375 34.460938 84.933594 33.929688 85.574219 33.289062 C 86.214844 32.648438 86.746094 31.972656 87.167969 31.261719 C 87.296875 31.085938 87.339844 30.875 87.300781 30.632812 C 87.257812 30.386719 87.160156 30.175781 87 30.003906 Z M 87 30.003906 "/>
<path style=" stroke:none;fill-rule:evenodd;fill:rgb(5.098039%,4.705882%,13.72549%);fill-opacity:1;" d="M 109.089844 28.882812 C 109.125 28.617188 109.175781 28.332031 109.246094 28.035156 C 109.316406 27.738281 109.40625 27.449219 109.511719 27.167969 C 109.617188 26.890625 109.738281 26.648438 109.878906 26.445312 C 110.019531 26.242188 110.167969 26.09375 110.324219 26.007812 C 110.480469 25.917969 110.640625 25.929688 110.804688 26.03125 C 110.980469 26.136719 111.089844 26.359375 111.128906 26.699219 C 111.171875 27.035156 111.128906 27.398438 111.007812 27.78125 C 110.882812 28.167969 110.664062 28.527344 110.351562 28.867188 C 110.035156 29.203125 109.609375 29.425781 109.074219 29.53125 C 109.050781 29.367188 109.054688 29.152344 109.089844 28.882812 Z M 115.15625 29.601562 C 114.964844 29.542969 114.78125 29.535156 114.605469 29.582031 C 114.429688 29.628906 114.320312 29.75 114.273438 29.949219 C 114.179688 30.324219 114.03125 30.703125 113.824219 31.09375 C 113.621094 31.484375 113.371094 31.855469 113.074219 32.207031 C 112.777344 32.554688 112.441406 32.863281 112.066406 33.132812 C 111.691406 33.398438 111.300781 33.59375 110.894531 33.710938 C 110.484375 33.835938 110.148438 33.851562 109.878906 33.753906 C 109.609375 33.652344 109.394531 33.484375 109.238281 33.246094 C 109.082031 33.007812 108.96875 32.71875 108.898438 32.378906 C 108.828125 32.042969 108.785156 31.691406 108.773438 31.332031 C 109.441406 31.378906 110.03125 31.257812 110.550781 30.972656 C 111.070312 30.6875 111.511719 30.308594 111.875 29.835938 C 112.234375 29.363281 112.511719 28.832031 112.695312 28.246094 C 112.882812 27.65625 112.988281 27.070312 113.011719 26.488281 C 113.023438 25.941406 112.941406 25.476562 112.765625 25.097656 C 112.59375 24.71875 112.355469 24.425781 112.058594 24.214844 C 111.761719 24.003906 111.417969 23.882812 111.035156 23.847656 C 110.648438 23.8125 110.257812 23.863281 109.859375 24.003906 C 109.382812 24.167969 108.976562 24.433594 108.644531 24.800781 C 108.3125 25.167969 108.035156 25.59375 107.8125 26.078125 C 107.589844 26.5625 107.414062 27.082031 107.285156 27.640625 C 107.15625 28.203125 107.0625 28.753906 107.007812 29.292969 C 106.953125 29.78125 106.925781 30.246094 106.914062 30.695312 C 106.890625 30.753906 106.867188 30.808594 106.839844 30.867188 C 106.660156 31.28125 106.449219 31.6875 106.210938 32.082031 C 105.96875 32.480469 105.703125 32.8125 105.414062 33.078125 C 105.121094 33.347656 104.816406 33.441406 104.503906 33.359375 C 104.316406 33.3125 104.214844 33.097656 104.195312 32.710938 C 104.179688 32.328125 104.199219 31.851562 104.257812 31.277344 C 104.316406 30.707031 104.382812 30.089844 104.457031 29.425781 C 104.535156 28.761719 104.574219 28.125 104.574219 27.519531 C 104.574219 26.996094 104.472656 26.492188 104.273438 26.007812 C 104.078125 25.523438 103.804688 25.121094 103.460938 24.800781 C 103.117188 24.480469 102.71875 24.265625 102.261719 24.164062 C 101.804688 24.058594 101.316406 24.128906 100.792969 24.371094 C 100.265625 24.617188 99.847656 24.960938 99.539062 25.402344 C 99.230469 25.847656 98.945312 26.3125 98.691406 26.800781 C 98.597656 26.429688 98.460938 26.082031 98.277344 25.761719 C 98.097656 25.441406 97.875 25.160156 97.613281 24.921875 C 97.351562 24.683594 97.054688 24.496094 96.730469 24.363281 C 96.402344 24.230469 96.058594 24.164062 95.695312 24.164062 C 95.34375 24.164062 95.023438 24.230469 94.722656 24.363281 C 94.425781 24.496094 94.15625 24.667969 93.910156 24.878906 C 93.664062 25.089844 93.445312 25.324219 93.246094 25.585938 C 93.046875 25.851562 92.871094 26.109375 92.71875 26.367188 C 92.695312 26.0625 92.667969 25.796875 92.640625 25.570312 C 92.613281 25.34375 92.558594 25.148438 92.484375 24.992188 C 92.40625 24.835938 92.300781 24.714844 92.160156 24.632812 C 92.019531 24.554688 91.820312 24.511719 91.566406 24.511719 C 91.4375 24.511719 91.308594 24.539062 91.179688 24.589844 C 91.050781 24.644531 90.9375 24.714844 90.835938 24.808594 C 90.738281 24.902344 90.660156 25.015625 90.609375 25.148438 C 90.558594 25.285156 90.542969 25.4375 90.566406 25.613281 C 90.578125 25.742188 90.609375 25.894531 90.660156 26.078125 C 90.714844 26.257812 90.765625 26.492188 90.8125 26.785156 C 90.855469 27.078125 90.894531 27.429688 90.925781 27.84375 C 90.953125 28.257812 90.964844 28.765625 90.953125 29.363281 C 90.9375 29.964844 90.894531 30.667969 90.820312 31.472656 C 90.742188 32.277344 90.625 33.207031 90.460938 34.269531 C 90.4375 34.511719 90.53125 34.710938 90.742188 34.863281 C 90.953125 35.015625 91.191406 35.101562 91.457031 35.125 C 91.726562 35.148438 91.980469 35.101562 92.21875 34.984375 C 92.460938 34.867188 92.597656 34.664062 92.632812 34.375 C 92.667969 33.824219 92.734375 33.242188 92.832031 32.625 C 92.933594 32.007812 93.054688 31.394531 93.199219 30.789062 C 93.347656 30.183594 93.511719 29.605469 93.699219 29.058594 C 93.886719 28.511719 94.09375 28.027344 94.320312 27.605469 C 94.550781 27.1875 94.785156 26.851562 95.03125 26.601562 C 95.277344 26.351562 95.53125 26.226562 95.800781 26.226562 C 96.128906 26.226562 96.382812 26.375 96.5625 26.671875 C 96.742188 26.96875 96.871094 27.351562 96.949219 27.816406 C 97.023438 28.28125 97.058594 28.792969 97.054688 29.347656 C 97.046875 29.902344 97.023438 30.433594 96.984375 30.945312 C 96.941406 31.460938 96.894531 31.917969 96.84375 32.320312 C 96.789062 32.722656 96.753906 33 96.730469 33.148438 C 96.730469 33.417969 96.832031 33.628906 97.035156 33.789062 C 97.238281 33.945312 97.46875 34.039062 97.71875 34.066406 C 97.96875 34.097656 98.207031 34.050781 98.425781 33.925781 C 98.648438 33.804688 98.777344 33.597656 98.8125 33.308594 C 98.929688 32.46875 99.089844 31.625 99.292969 30.78125 C 99.496094 29.933594 99.730469 29.179688 99.996094 28.507812 C 100.257812 27.835938 100.546875 27.289062 100.871094 26.863281 C 101.191406 26.4375 101.53125 26.226562 101.894531 26.226562 C 102.082031 26.226562 102.222656 26.355469 102.324219 26.609375 C 102.421875 26.867188 102.472656 27.214844 102.472656 27.660156 C 102.472656 27.984375 102.445312 28.320312 102.394531 28.664062 C 102.339844 29.007812 102.277344 29.363281 102.210938 29.730469 C 102.140625 30.097656 102.078125 30.472656 102.023438 30.859375 C 101.972656 31.242188 101.945312 31.644531 101.945312 32.066406 C 101.945312 32.355469 101.976562 32.695312 102.035156 33.078125 C 102.09375 33.464844 102.203125 33.828125 102.367188 34.171875 C 102.53125 34.515625 102.753906 34.808594 103.039062 35.046875 C 103.328125 35.285156 103.691406 35.40625 104.136719 35.40625 C 104.800781 35.40625 105.390625 35.261719 105.902344 34.976562 C 106.417969 34.691406 106.859375 34.320312 107.226562 33.859375 C 107.246094 33.832031 107.261719 33.808594 107.28125 33.785156 C 107.308594 33.851562 107.332031 33.925781 107.363281 33.988281 C 107.617188 34.5 107.957031 34.898438 108.390625 35.179688 C 108.820312 35.457031 109.328125 35.613281 109.914062 35.640625 C 110.496094 35.671875 111.132812 35.5625 111.820312 35.316406 C 112.335938 35.132812 112.78125 34.898438 113.160156 34.617188 C 113.539062 34.339844 113.878906 33.996094 114.183594 33.59375 C 114.488281 33.191406 114.765625 32.730469 115.015625 32.207031 C 115.269531 31.679688 115.519531 31.082031 115.777344 30.40625 C 115.824219 30.21875 115.78125 30.050781 115.648438 29.90625 C 115.511719 29.761719 115.347656 29.660156 115.15625 29.601562 Z M 115.15625 29.601562 "/>
<path style=" stroke:none;fill-rule:evenodd;fill:rgb(5.098039%,4.705882%,13.72549%);fill-opacity:1;" d="M 124.671875 27.648438 C 124.613281 27.992188 124.535156 28.371094 124.433594 28.785156 C 124.335938 29.199219 124.210938 29.628906 124.058594 30.070312 C 123.90625 30.515625 123.71875 30.914062 123.496094 31.269531 C 123.277344 31.625 123.023438 31.90625 122.734375 32.117188 C 122.449219 32.328125 122.121094 32.414062 121.746094 32.378906 C 121.558594 32.355469 121.417969 32.226562 121.316406 31.996094 C 121.21875 31.761719 121.167969 31.464844 121.160156 31.101562 C 121.152344 30.742188 121.1875 30.34375 121.257812 29.914062 C 121.328125 29.484375 121.433594 29.058594 121.582031 28.644531 C 121.726562 28.234375 121.90625 27.851562 122.113281 27.5 C 122.324219 27.152344 122.566406 26.878906 122.839844 26.6875 C 123.113281 26.496094 123.414062 26.40625 123.742188 26.417969 C 124.070312 26.429688 124.421875 26.589844 124.792969 26.90625 C 124.769531 27.058594 124.730469 27.304688 124.671875 27.648438 Z M 130.894531 28.988281 C 130.714844 28.894531 130.527344 28.875 130.335938 28.925781 C 130.140625 28.980469 130.003906 29.15625 129.921875 29.460938 C 129.875 29.785156 129.773438 30.171875 129.609375 30.613281 C 129.445312 31.054688 129.242188 31.476562 129.003906 31.871094 C 128.765625 32.269531 128.492188 32.597656 128.179688 32.859375 C 127.871094 33.121094 127.542969 33.242188 127.191406 33.21875 C 126.898438 33.195312 126.695312 33.046875 126.578125 32.773438 C 126.460938 32.5 126.402344 32.15625 126.394531 31.742188 C 126.390625 31.328125 126.429688 30.863281 126.519531 30.34375 C 126.605469 29.824219 126.710938 29.308594 126.832031 28.796875 C 126.957031 28.28125 127.082031 27.789062 127.210938 27.316406 C 127.335938 26.84375 127.441406 26.445312 127.523438 26.121094 C 127.617188 25.828125 127.589844 25.582031 127.4375 25.375 C 127.285156 25.171875 127.097656 25.027344 126.867188 24.941406 C 126.640625 24.851562 126.410156 24.828125 126.175781 24.871094 C 125.941406 24.910156 125.792969 25.035156 125.722656 25.246094 C 125.03125 24.652344 124.371094 24.332031 123.734375 24.285156 C 123.097656 24.238281 122.511719 24.378906 121.976562 24.703125 C 121.4375 25.03125 120.960938 25.503906 120.546875 26.121094 C 120.132812 26.738281 119.796875 27.410156 119.539062 28.140625 C 119.285156 28.867188 119.125 29.609375 119.058594 30.367188 C 118.996094 31.125 119.042969 31.816406 119.207031 32.441406 C 119.371094 33.0625 119.660156 33.574219 120.074219 33.96875 C 120.488281 34.367188 121.050781 34.566406 121.765625 34.566406 C 122.078125 34.566406 122.382812 34.5 122.675781 34.371094 C 122.964844 34.246094 123.234375 34.09375 123.480469 33.917969 C 123.726562 33.742188 123.941406 33.558594 124.128906 33.367188 C 124.316406 33.175781 124.460938 33.015625 124.566406 32.886719 C 124.648438 33.304688 124.78125 33.660156 124.96875 33.953125 C 125.15625 34.246094 125.367188 34.484375 125.609375 34.671875 C 125.847656 34.855469 126.097656 34.992188 126.359375 35.082031 C 126.621094 35.167969 126.878906 35.210938 127.121094 35.210938 C 127.671875 35.210938 128.183594 35.027344 128.664062 34.652344 C 129.140625 34.28125 129.570312 33.820312 129.949219 33.28125 C 130.328125 32.738281 130.640625 32.167969 130.886719 31.566406 C 131.132812 30.964844 131.292969 30.433594 131.375 29.964844 C 131.457031 29.792969 131.441406 29.609375 131.332031 29.414062 C 131.222656 29.222656 131.074219 29.082031 130.894531 28.988281 Z M 130.894531 28.988281 "/>
<path style=" stroke:none;fill-rule:evenodd;fill:rgb(5.098039%,4.705882%,13.72549%);fill-opacity:1;" d="M 162.410156 38.640625 C 162.308594 39.035156 162.15625 39.371094 161.945312 39.644531 C 161.734375 39.917969 161.472656 40.0625 161.15625 40.074219 C 160.960938 40.085938 160.808594 39.980469 160.703125 39.757812 C 160.597656 39.539062 160.523438 39.253906 160.484375 38.902344 C 160.441406 38.550781 160.425781 38.160156 160.429688 37.730469 C 160.4375 37.300781 160.453125 36.875 160.484375 36.453125 C 160.511719 36.035156 160.546875 35.644531 160.589844 35.28125 C 160.628906 34.921875 160.660156 34.640625 160.683594 34.445312 C 161.082031 34.492188 161.410156 34.664062 161.675781 34.960938 C 161.9375 35.257812 162.136719 35.609375 162.277344 36.015625 C 162.417969 36.425781 162.5 36.867188 162.523438 37.335938 C 162.546875 37.808594 162.507812 38.242188 162.410156 38.640625 Z M 156.070312 38.640625 C 155.972656 39.035156 155.816406 39.371094 155.609375 39.644531 C 155.398438 39.917969 155.136719 40.0625 154.820312 40.074219 C 154.621094 40.085938 154.46875 39.980469 154.363281 39.757812 C 154.257812 39.539062 154.1875 39.253906 154.144531 38.902344 C 154.105469 38.550781 154.085938 38.160156 154.09375 37.730469 C 154.097656 37.300781 154.117188 36.875 154.144531 36.453125 C 154.175781 36.035156 154.210938 35.644531 154.25 35.28125 C 154.292969 34.921875 154.324219 34.640625 154.347656 34.445312 C 154.742188 34.492188 155.074219 34.664062 155.335938 34.960938 C 155.597656 35.257812 155.800781 35.609375 155.941406 36.015625 C 156.082031 36.425781 156.164062 36.867188 156.1875 37.335938 C 156.207031 37.808594 156.171875 38.242188 156.070312 38.640625 Z M 149.566406 28.707031 C 149.554688 28.988281 149.53125 29.234375 149.488281 29.453125 C 149.449219 29.667969 149.390625 29.804688 149.324219 29.863281 C 149.195312 29.792969 149.035156 29.613281 148.851562 29.320312 C 148.664062 29.03125 148.515625 28.699219 148.410156 28.332031 C 148.308594 27.964844 148.273438 27.605469 148.316406 27.25 C 148.355469 26.894531 148.539062 26.617188 148.867188 26.417969 C 148.996094 26.347656 149.105469 26.375 149.199219 26.496094 C 149.292969 26.621094 149.367188 26.796875 149.425781 27.03125 C 149.484375 27.261719 149.527344 27.53125 149.550781 27.835938 C 149.574219 28.136719 149.578125 28.429688 149.566406 28.707031 Z M 148.019531 32.195312 C 147.835938 32.390625 147.636719 32.554688 147.414062 32.695312 C 147.191406 32.835938 146.964844 32.941406 146.730469 33.011719 C 146.496094 33.082031 146.289062 33.097656 146.101562 33.0625 C 145.574219 32.957031 145.171875 32.730469 144.894531 32.378906 C 144.613281 32.03125 144.433594 31.621094 144.359375 31.148438 C 144.28125 30.675781 144.292969 30.171875 144.386719 29.636719 C 144.476562 29.097656 144.636719 28.601562 144.859375 28.140625 C 145.078125 27.679688 145.347656 27.285156 145.664062 26.953125 C 145.976562 26.621094 146.324219 26.414062 146.695312 26.332031 C 146.554688 26.925781 146.507812 27.539062 146.554688 28.175781 C 146.601562 28.8125 146.753906 29.40625 147.011719 29.96875 C 147.175781 30.304688 147.371094 30.613281 147.597656 30.894531 C 147.824219 31.175781 148.101562 31.414062 148.429688 31.609375 C 148.335938 31.808594 148.199219 32.003906 148.019531 32.195312 Z M 167.390625 28.882812 C 167.425781 28.617188 167.476562 28.332031 167.546875 28.035156 C 167.617188 27.738281 167.707031 27.449219 167.8125 27.171875 C 167.917969 26.890625 168.039062 26.648438 168.179688 26.445312 C 168.320312 26.242188 168.46875 26.09375 168.625 26.007812 C 168.78125 25.917969 168.941406 25.929688 169.105469 26.035156 C 169.28125 26.136719 169.390625 26.359375 169.429688 26.699219 C 169.472656 27.035156 169.429688 27.398438 169.308594 27.78125 C 169.183594 28.167969 168.96875 28.527344 168.652344 28.867188 C 168.335938 29.203125 167.910156 29.425781 167.375 29.53125 C 167.351562 29.367188 167.355469 29.152344 167.390625 28.882812 Z M 174.445312 28.882812 C 174.480469 28.617188 174.535156 28.332031 174.605469 28.035156 C 174.675781 27.738281 174.761719 27.449219 174.867188 27.171875 C 174.972656 26.890625 175.09375 26.648438 175.234375 26.445312 C 175.375 26.242188 175.523438 26.09375 175.679688 26.007812 C 175.839844 25.917969 176 25.929688 176.164062 26.035156 C 176.335938 26.136719 176.445312 26.359375 176.488281 26.699219 C 176.527344 27.035156 176.488281 27.398438 176.363281 27.78125 C 176.242188 28.167969 176.023438 28.527344 175.707031 28.867188 C 175.390625 29.203125 174.964844 29.425781 174.429688 29.53125 C 174.40625 29.367188 174.410156 29.152344 174.445312 28.882812 Z M 181.003906 29.90625 C 180.871094 29.761719 180.707031 29.660156 180.511719 29.601562 C 180.320312 29.542969 180.136719 29.535156 179.960938 29.582031 C 179.785156 29.628906 179.675781 29.753906 179.628906 29.949219 C 179.535156 30.324219 179.386719 30.703125 179.183594 31.09375 C 178.976562 31.484375 178.726562 31.855469 178.429688 32.207031 C 178.132812 32.554688 177.796875 32.863281 177.421875 33.132812 C 177.050781 33.402344 176.660156 33.59375 176.25 33.710938 C 175.839844 33.835938 175.503906 33.851562 175.234375 33.753906 C 174.964844 33.652344 174.753906 33.484375 174.597656 33.246094 C 174.4375 33.007812 174.324219 32.71875 174.253906 32.378906 C 174.183594 32.042969 174.144531 31.691406 174.132812 31.332031 C 174.796875 31.378906 175.390625 31.257812 175.910156 30.972656 C 176.429688 30.6875 176.867188 30.308594 177.230469 29.835938 C 177.59375 29.363281 177.867188 28.835938 178.054688 28.246094 C 178.242188 27.65625 178.34375 27.070312 178.367188 26.488281 C 178.378906 25.941406 178.296875 25.476562 178.125 25.097656 C 177.949219 24.71875 177.710938 24.425781 177.414062 24.214844 C 177.117188 24.003906 176.777344 23.882812 176.390625 23.847656 C 176.003906 23.8125 175.613281 23.867188 175.21875 24.003906 C 174.738281 24.167969 174.332031 24.433594 174 24.800781 C 173.667969 25.167969 173.390625 25.59375 173.167969 26.078125 C 172.945312 26.5625 172.773438 27.082031 172.644531 27.640625 C 172.515625 28.203125 172.421875 28.753906 172.363281 29.292969 C 172.304688 29.820312 172.277344 30.324219 172.269531 30.804688 C 172.222656 30.902344 172.179688 31 172.125 31.09375 C 171.921875 31.484375 171.671875 31.855469 171.375 32.207031 C 171.078125 32.554688 170.742188 32.863281 170.367188 33.132812 C 169.992188 33.402344 169.601562 33.59375 169.195312 33.710938 C 168.785156 33.835938 168.449219 33.851562 168.179688 33.753906 C 167.910156 33.652344 167.699219 33.484375 167.539062 33.246094 C 167.382812 33.007812 167.269531 32.71875 167.199219 32.378906 C 167.128906 32.042969 167.085938 31.691406 167.074219 31.332031 C 167.742188 31.378906 168.332031 31.257812 168.851562 30.972656 C 169.371094 30.6875 169.8125 30.308594 170.175781 29.835938 C 170.535156 29.363281 170.8125 28.835938 170.996094 28.246094 C 171.183594 27.65625 171.289062 27.070312 171.3125 26.488281 C 171.324219 25.941406 171.242188 25.476562 171.066406 25.097656 C 170.894531 24.71875 170.65625 24.425781 170.359375 24.214844 C 170.0625 24.003906 169.71875 23.882812 169.335938 23.847656 C 168.949219 23.8125 168.558594 23.867188 168.160156 24.003906 C 167.683594 24.167969 167.277344 24.433594 166.945312 24.800781 C 166.613281 25.167969 166.335938 25.59375 166.113281 26.078125 C 165.890625 26.5625 165.714844 27.082031 165.589844 27.640625 C 165.460938 28.203125 165.367188 28.753906 165.308594 29.292969 C 165.273438 29.601562 165.25 29.894531 165.234375 30.1875 C 165.125 30.285156 165.011719 30.378906 164.894531 30.472656 C 164.492188 30.800781 164.070312 31.09375 163.628906 31.359375 C 163.183594 31.621094 162.722656 31.835938 162.242188 32.003906 C 161.765625 32.171875 161.273438 32.277344 160.773438 32.3125 L 161.859375 20.699219 C 161.929688 20.457031 161.894531 20.242188 161.753906 20.054688 C 161.613281 19.867188 161.433594 19.738281 161.210938 19.667969 C 160.988281 19.597656 160.753906 19.605469 160.5 19.6875 C 160.25 19.769531 160.042969 19.953125 159.878906 20.246094 C 159.796875 20.6875 159.714844 21.296875 159.625 22.0625 C 159.539062 22.832031 159.449219 23.671875 159.363281 24.582031 C 159.277344 25.492188 159.1875 26.429688 159.101562 27.398438 C 159.011719 28.363281 158.9375 29.269531 158.875 30.109375 C 158.871094 30.144531 158.867188 30.179688 158.863281 30.214844 C 158.761719 30.300781 158.664062 30.390625 158.558594 30.472656 C 158.15625 30.800781 157.730469 31.09375 157.289062 31.359375 C 156.84375 31.621094 156.382812 31.835938 155.90625 32.003906 C 155.425781 32.171875 154.9375 32.277344 154.433594 32.3125 L 155.519531 20.699219 C 155.589844 20.457031 155.554688 20.242188 155.414062 20.054688 C 155.273438 19.867188 155.09375 19.738281 154.871094 19.667969 C 154.652344 19.597656 154.414062 19.605469 154.164062 19.6875 C 153.910156 19.769531 153.707031 19.953125 153.542969 20.246094 C 153.460938 20.6875 153.375 21.296875 153.289062 22.0625 C 153.199219 22.832031 153.113281 23.671875 153.027344 24.582031 C 152.9375 25.492188 152.851562 26.429688 152.761719 27.398438 C 152.675781 28.363281 152.597656 29.269531 152.535156 30.109375 C 152.535156 30.125 152.53125 30.140625 152.53125 30.15625 C 152.347656 30.242188 152.148438 30.316406 151.929688 30.378906 C 151.710938 30.441406 151.457031 30.480469 151.179688 30.492188 C 151.226562 30.28125 151.261719 30.050781 151.292969 29.792969 C 151.320312 29.535156 151.34375 29.269531 151.363281 28.988281 C 151.378906 28.707031 151.386719 28.429688 151.378906 28.148438 C 151.375 27.871094 151.359375 27.613281 151.335938 27.378906 C 151.277344 26.878906 151.167969 26.402344 151.011719 25.953125 C 150.855469 25.507812 150.640625 25.128906 150.371094 24.828125 C 150.105469 24.523438 149.769531 24.320312 149.367188 24.214844 C 148.964844 24.109375 148.492188 24.144531 147.957031 24.320312 C 147.164062 24.214844 146.449219 24.289062 145.8125 24.539062 C 145.175781 24.789062 144.625 25.152344 144.15625 25.632812 C 143.691406 26.109375 143.308594 26.671875 143.011719 27.320312 C 142.710938 27.964844 142.515625 28.628906 142.414062 29.3125 C 142.371094 29.601562 142.351562 29.886719 142.347656 30.175781 C 142.164062 30.546875 141.96875 30.867188 141.75 31.140625 C 141.441406 31.523438 141.121094 31.839844 140.789062 32.082031 C 140.453125 32.328125 140.125 32.515625 139.796875 32.644531 C 139.46875 32.769531 139.179688 32.859375 138.921875 32.90625 C 138.617188 32.964844 138.328125 32.96875 138.046875 32.921875 C 137.765625 32.875 137.507812 32.742188 137.277344 32.519531 C 137.089844 32.355469 136.945312 32.09375 136.847656 31.734375 C 136.75 31.371094 136.691406 30.960938 136.671875 30.5 C 136.65625 30.039062 136.671875 29.558594 136.726562 29.058594 C 136.777344 28.558594 136.867188 28.082031 136.996094 27.632812 C 137.125 27.183594 137.289062 26.78125 137.488281 26.425781 C 137.683594 26.070312 137.917969 25.816406 138.1875 25.667969 C 138.339844 25.691406 138.433594 25.78125 138.46875 25.9375 C 138.503906 26.09375 138.511719 26.28125 138.492188 26.496094 C 138.476562 26.710938 138.449219 26.933594 138.414062 27.160156 C 138.378906 27.386719 138.363281 27.578125 138.363281 27.730469 C 138.421875 28.042969 138.535156 28.289062 138.703125 28.464844 C 138.871094 28.640625 139.0625 28.742188 139.273438 28.769531 C 139.484375 28.800781 139.691406 28.75 139.894531 28.621094 C 140.097656 28.492188 140.265625 28.289062 140.394531 28.007812 C 140.40625 28.019531 140.421875 28.027344 140.445312 28.027344 L 140.691406 25.804688 C 140.761719 25.503906 140.714844 25.234375 140.550781 25.003906 C 140.386719 24.769531 140.171875 24.632812 139.902344 24.601562 C 139.5625 24.109375 139.105469 23.851562 138.527344 23.820312 C 137.949219 23.792969 137.359375 23.980469 136.75 24.390625 C 136.378906 24.660156 136.046875 25.027344 135.761719 25.5 C 135.476562 25.972656 135.242188 26.496094 135.0625 27.074219 C 134.878906 27.652344 134.753906 28.261719 134.675781 28.902344 C 134.601562 29.542969 134.585938 30.167969 134.632812 30.773438 C 134.679688 31.378906 134.789062 31.949219 134.957031 32.484375 C 135.125 33.023438 135.363281 33.46875 135.664062 33.832031 C 135.921875 34.144531 136.214844 34.375 136.539062 34.523438 C 136.867188 34.667969 137.207031 34.757812 137.566406 34.792969 C 137.921875 34.828125 138.273438 34.8125 138.625 34.75 C 138.976562 34.6875 139.308594 34.59375 139.621094 34.480469 C 140.03125 34.328125 140.453125 34.136719 140.882812 33.902344 C 141.316406 33.667969 141.730469 33.390625 142.125 33.0625 C 142.335938 32.890625 142.535156 32.703125 142.730469 32.503906 C 142.820312 32.722656 142.917969 32.933594 143.035156 33.132812 C 143.351562 33.65625 143.777344 34.082031 144.316406 34.410156 C 144.851562 34.734375 145.511719 34.890625 146.292969 34.882812 C 147.132812 34.867188 147.910156 34.65625 148.621094 34.242188 C 149.335938 33.828125 149.917969 33.21875 150.371094 32.414062 C 151.054688 32.414062 151.726562 32.304688 152.386719 32.082031 C 152.378906 32.152344 152.375 32.226562 152.367188 32.292969 C 152.320312 32.910156 152.296875 33.332031 152.296875 33.550781 C 152.285156 33.9375 152.261719 34.410156 152.21875 34.976562 C 152.179688 35.542969 152.152344 36.136719 152.140625 36.761719 C 152.128906 37.382812 152.152344 38.011719 152.210938 38.648438 C 152.269531 39.285156 152.390625 39.859375 152.578125 40.378906 C 152.765625 40.898438 153.03125 41.339844 153.375 41.699219 C 153.71875 42.0625 154.171875 42.277344 154.734375 42.347656 C 155.328125 42.429688 155.839844 42.324219 156.273438 42.03125 C 156.703125 41.742188 157.054688 41.339844 157.324219 40.835938 C 157.59375 40.328125 157.78125 39.742188 157.894531 39.078125 C 158.003906 38.414062 158.035156 37.746094 157.988281 37.074219 C 157.941406 36.40625 157.820312 35.773438 157.621094 35.179688 C 157.421875 34.582031 157.148438 34.09375 156.796875 33.710938 C 157.007812 33.652344 157.257812 33.539062 157.550781 33.378906 C 157.84375 33.214844 158.144531 33.03125 158.453125 32.828125 C 158.527344 32.777344 158.605469 32.722656 158.679688 32.671875 C 158.652344 33.085938 158.636719 33.378906 158.636719 33.550781 C 158.625 33.9375 158.597656 34.410156 158.558594 34.976562 C 158.515625 35.542969 158.492188 36.136719 158.480469 36.761719 C 158.46875 37.382812 158.492188 38.011719 158.550781 38.648438 C 158.609375 39.285156 158.730469 39.859375 158.917969 40.378906 C 159.105469 40.898438 159.371094 41.339844 159.714844 41.699219 C 160.058594 42.0625 160.511719 42.277344 161.070312 42.347656 C 161.664062 42.429688 162.179688 42.324219 162.609375 42.03125 C 163.042969 41.742188 163.394531 41.339844 163.664062 40.835938 C 163.929688 40.328125 164.121094 39.742188 164.230469 39.078125 C 164.34375 38.414062 164.375 37.746094 164.328125 37.074219 C 164.28125 36.40625 164.15625 35.773438 163.960938 35.179688 C 163.761719 34.582031 163.488281 34.09375 163.136719 33.710938 C 163.347656 33.652344 163.597656 33.539062 163.890625 33.378906 C 164.179688 33.214844 164.480469 33.03125 164.792969 32.828125 C 164.953125 32.71875 165.113281 32.609375 165.269531 32.5 C 165.332031 33.070312 165.460938 33.570312 165.664062 33.988281 C 165.917969 34.503906 166.257812 34.898438 166.691406 35.179688 C 167.121094 35.457031 167.628906 35.613281 168.214844 35.640625 C 168.796875 35.671875 169.433594 35.5625 170.121094 35.316406 C 170.636719 35.132812 171.082031 34.898438 171.460938 34.617188 C 171.839844 34.339844 172.183594 33.996094 172.484375 33.597656 C 172.503906 33.574219 172.519531 33.546875 172.535156 33.523438 C 172.589844 33.6875 172.652344 33.84375 172.722656 33.988281 C 172.972656 34.503906 173.316406 34.898438 173.746094 35.179688 C 174.179688 35.457031 174.6875 35.613281 175.269531 35.640625 C 175.851562 35.671875 176.488281 35.5625 177.179688 35.316406 C 177.691406 35.132812 178.140625 34.898438 178.515625 34.617188 C 178.898438 34.339844 179.238281 33.996094 179.542969 33.597656 C 179.84375 33.195312 180.121094 32.730469 180.375 32.207031 C 180.625 31.679688 180.878906 31.082031 181.136719 30.40625 C 181.183594 30.21875 181.136719 30.050781 181.003906 29.90625 Z M 181.003906 29.90625 "/>
</g>
</svg>
