<?xml version="1.0" encoding="UTF-8"?>
<svg xmlns="http://www.w3.org/2000/svg" xmlns:xlink="http://www.w3.org/1999/xlink" width="200px" height="75px" viewBox="0 0 200 75" version="1.1">
<g id="surface1">
<rect x="0" y="0" width="200" height="75" style="fill:rgb(100%,100%,100%);fill-opacity:1;stroke:none;"/>
<path style=" stroke:none;fill-rule:evenodd;fill:rgb(5.098039%,4.705882%,13.72549%);fill-opacity:1;" d="M 55.683594 40.644531 C 55.457031 41.074219 55.148438 41.453125 54.75 41.769531 C 54.355469 42.089844 53.890625 42.351562 53.363281 42.550781 C 52.835938 42.753906 52.304688 42.886719 51.769531 42.957031 C 51.234375 43.023438 50.714844 43.019531 50.210938 42.9375 C 49.710938 42.855469 49.28125 42.691406 48.929688 42.4375 L 49.324219 38.320312 C 49.691406 38.195312 50.148438 38.066406 50.703125 37.9375 C 51.257812 37.804688 51.824219 37.710938 52.410156 37.652344 C 52.996094 37.597656 53.550781 37.605469 54.070312 37.671875 C 54.59375 37.742188 55.003906 37.90625 55.308594 38.171875 C 55.46875 38.320312 55.609375 38.484375 55.722656 38.660156 C 55.835938 38.835938 55.90625 39.015625 55.929688 39.207031 C 55.992188 39.730469 55.910156 40.210938 55.683594 40.644531 Z M 49.929688 31.871094 C 50.195312 31.710938 50.511719 31.566406 50.882812 31.441406 C 51.253906 31.316406 51.632812 31.226562 52.023438 31.175781 C 52.414062 31.125 52.792969 31.121094 53.164062 31.15625 C 53.535156 31.195312 53.863281 31.300781 54.148438 31.46875 C 54.429688 31.636719 54.640625 31.882812 54.777344 32.203125 C 54.917969 32.519531 54.953125 32.925781 54.890625 33.414062 C 54.839844 33.800781 54.6875 34.132812 54.429688 34.402344 C 54.171875 34.671875 53.855469 34.894531 53.484375 35.078125 C 53.113281 35.261719 52.722656 35.402344 52.308594 35.511719 C 51.890625 35.617188 51.492188 35.695312 51.109375 35.746094 C 50.726562 35.796875 50.390625 35.828125 50.109375 35.839844 C 49.824219 35.851562 49.640625 35.859375 49.550781 35.859375 Z M 57.722656 37.984375 C 57.519531 37.542969 57.25 37.160156 56.910156 36.828125 C 56.570312 36.496094 56.167969 36.253906 55.703125 36.101562 C 55.90625 35.941406 56.101562 35.683594 56.296875 35.332031 C 56.492188 34.980469 56.660156 34.597656 56.796875 34.183594 C 56.9375 33.769531 57.03125 33.355469 57.082031 32.933594 C 57.132812 32.515625 57.113281 32.15625 57.023438 31.851562 C 56.808594 31.101562 56.472656 30.511719 56.015625 30.085938 C 55.554688 29.660156 55.019531 29.367188 54.410156 29.203125 C 53.800781 29.039062 53.128906 29.003906 52.390625 29.097656 C 51.65625 29.191406 50.902344 29.378906 50.136719 29.652344 C 50.136719 29.589844 50.144531 29.527344 50.15625 29.457031 C 50.167969 29.386719 50.175781 29.316406 50.175781 29.238281 C 50.175781 29.050781 50.078125 28.890625 49.890625 28.75 C 49.703125 28.613281 49.484375 28.53125 49.242188 28.507812 C 48.996094 28.480469 48.757812 28.535156 48.523438 28.667969 C 48.289062 28.796875 48.128906 29.039062 48.042969 29.390625 C 47.941406 30.519531 47.839844 31.691406 47.742188 32.90625 C 47.640625 34.121094 47.53125 35.351562 47.417969 36.59375 C 47.304688 37.832031 47.191406 39.0625 47.078125 40.285156 C 46.964844 41.507812 46.851562 42.683594 46.742188 43.8125 C 46.777344 44.148438 46.871094 44.414062 47.023438 44.601562 C 47.175781 44.789062 47.351562 44.902344 47.550781 44.941406 C 47.753906 44.976562 47.964844 44.941406 48.183594 44.835938 C 48.402344 44.730469 48.597656 44.542969 48.757812 44.28125 C 49.261719 44.558594 49.828125 44.734375 50.457031 44.816406 C 51.085938 44.898438 51.726562 44.898438 52.371094 44.816406 C 53.019531 44.734375 53.660156 44.582031 54.289062 44.355469 C 54.917969 44.132812 55.488281 43.847656 56.003906 43.511719 C 56.519531 43.171875 56.953125 42.785156 57.308594 42.355469 C 57.660156 41.921875 57.890625 41.453125 58.003906 40.953125 C 58.117188 40.441406 58.148438 39.925781 58.101562 39.410156 C 58.050781 38.898438 57.921875 38.421875 57.722656 37.984375 Z M 57.722656 37.984375 "/>
<path style=" stroke:none;fill-rule:evenodd;fill:rgb(5.098039%,4.705882%,13.72549%);fill-opacity:1;" d="M 76.128906 47.910156 C 76.0625 48.324219 75.964844 48.757812 75.839844 49.214844 C 75.710938 49.671875 75.566406 50.089844 75.394531 50.464844 C 75.226562 50.84375 75.035156 51.144531 74.828125 51.378906 C 74.621094 51.609375 74.398438 51.707031 74.160156 51.671875 C 73.96875 51.644531 73.851562 51.527344 73.800781 51.3125 C 73.75 51.097656 73.75 50.835938 73.800781 50.523438 C 73.851562 50.210938 73.949219 49.855469 74.09375 49.460938 C 74.238281 49.066406 74.414062 48.671875 74.621094 48.285156 C 74.828125 47.898438 75.066406 47.523438 75.328125 47.167969 C 75.59375 46.808594 75.871094 46.511719 76.160156 46.273438 C 76.222656 46.347656 76.25 46.535156 76.242188 46.835938 C 76.238281 47.136719 76.199219 47.496094 76.128906 47.910156 Z M 82.527344 39.75 C 82.359375 39.5625 82.148438 39.457031 81.90625 39.429688 C 81.660156 39.40625 81.410156 39.542969 81.160156 39.84375 C 80.996094 40.144531 80.789062 40.433594 80.535156 40.707031 C 80.285156 40.984375 80.023438 41.234375 79.753906 41.460938 C 79.484375 41.6875 79.226562 41.878906 78.980469 42.042969 C 78.734375 42.207031 78.542969 42.324219 78.40625 42.402344 C 78.355469 42 78.324219 41.566406 78.320312 41.101562 C 78.3125 40.640625 78.324219 40.167969 78.347656 39.691406 C 78.386719 39.015625 78.464844 38.332031 78.582031 37.644531 C 78.703125 36.953125 78.875 36.277344 79.101562 35.613281 C 79.101562 35.261719 79.019531 34.976562 78.855469 34.757812 C 78.695312 34.539062 78.496094 34.398438 78.261719 34.34375 C 78.03125 34.289062 77.789062 34.320312 77.546875 34.4375 C 77.300781 34.558594 77.089844 34.773438 76.914062 35.085938 C 76.761719 35.5 76.589844 35.964844 76.394531 36.476562 C 76.199219 36.992188 75.980469 37.515625 75.734375 38.046875 C 75.488281 38.582031 75.214844 39.097656 74.914062 39.597656 C 74.613281 40.101562 74.28125 40.546875 73.921875 40.933594 C 73.566406 41.324219 73.175781 41.625 72.753906 41.847656 C 72.332031 42.066406 71.875 42.164062 71.386719 42.136719 C 71.15625 42.074219 70.996094 41.90625 70.894531 41.628906 C 70.792969 41.355469 70.734375 41.007812 70.714844 40.59375 C 70.695312 40.183594 70.714844 39.726562 70.773438 39.230469 C 70.828125 38.738281 70.902344 38.246094 70.996094 37.757812 C 71.09375 37.269531 71.195312 36.804688 71.308594 36.367188 C 71.421875 35.925781 71.53125 35.558594 71.628906 35.253906 C 71.78125 34.894531 71.78125 34.589844 71.628906 34.34375 C 71.480469 34.097656 71.273438 33.9375 71.007812 33.855469 C 70.742188 33.773438 70.464844 33.777344 70.175781 33.863281 C 69.886719 33.953125 69.679688 34.148438 69.554688 34.445312 C 69.339844 34.960938 69.144531 35.539062 68.96875 36.175781 C 68.792969 36.816406 68.652344 37.476562 68.546875 38.160156 C 68.4375 38.84375 68.378906 39.519531 68.367188 40.191406 C 68.363281 40.234375 68.367188 40.277344 68.367188 40.320312 C 68.09375 41.046875 67.832031 41.597656 67.582031 41.96875 C 67.261719 42.445312 66.898438 42.652344 66.496094 42.589844 C 66.320312 42.511719 66.203125 42.339844 66.148438 42.0625 C 66.089844 41.785156 66.074219 41.449219 66.089844 41.046875 C 66.109375 40.644531 66.15625 40.191406 66.234375 39.683594 C 66.308594 39.175781 66.402344 38.648438 66.515625 38.105469 C 66.628906 37.558594 66.75 37.011719 66.875 36.460938 C 67 35.90625 67.113281 35.386719 67.214844 34.898438 C 67.203125 34.460938 67.074219 34.125 66.828125 33.894531 C 66.582031 33.660156 66.238281 33.570312 65.800781 33.621094 C 65.496094 33.746094 65.273438 33.910156 65.128906 34.109375 C 64.984375 34.308594 64.867188 34.566406 64.78125 34.878906 C 64.730469 35.042969 64.65625 35.367188 64.554688 35.859375 C 64.453125 36.347656 64.324219 36.90625 64.167969 37.539062 C 64.011719 38.171875 63.824219 38.835938 63.609375 39.523438 C 63.398438 40.214844 63.15625 40.835938 62.894531 41.394531 C 62.628906 41.953125 62.339844 42.402344 62.027344 42.738281 C 61.710938 43.078125 61.371094 43.214844 61.007812 43.152344 C 60.804688 43.113281 60.675781 42.90625 60.621094 42.53125 C 60.5625 42.15625 60.554688 41.691406 60.589844 41.140625 C 60.628906 40.589844 60.703125 39.984375 60.816406 39.328125 C 60.929688 38.667969 61.046875 38.046875 61.167969 37.457031 C 61.285156 36.867188 61.398438 36.347656 61.496094 35.894531 C 61.597656 35.445312 61.667969 35.144531 61.703125 34.992188 C 61.703125 34.628906 61.621094 34.339844 61.460938 34.117188 C 61.296875 33.898438 61.097656 33.761719 60.863281 33.703125 C 60.632812 33.648438 60.394531 33.679688 60.148438 33.796875 C 59.902344 33.917969 59.691406 34.132812 59.515625 34.445312 C 59.453125 34.785156 59.371094 35.175781 59.269531 35.621094 C 59.167969 36.066406 59.074219 36.523438 58.976562 36.996094 C 58.882812 37.464844 58.796875 37.925781 58.714844 38.378906 C 58.632812 38.828125 58.574219 39.222656 58.535156 39.5625 C 58.507812 39.824219 58.480469 40.148438 58.449219 40.53125 C 58.417969 40.914062 58.402344 41.316406 58.402344 41.742188 C 58.402344 42.167969 58.433594 42.589844 58.496094 43.011719 C 58.558594 43.433594 58.671875 43.816406 58.835938 44.167969 C 59 44.519531 59.230469 44.808594 59.527344 45.03125 C 59.820312 45.257812 60.195312 45.382812 60.648438 45.410156 C 61.113281 45.433594 61.519531 45.398438 61.863281 45.304688 C 62.210938 45.210938 62.527344 45.0625 62.808594 44.863281 C 63.089844 44.664062 63.347656 44.425781 63.582031 44.148438 C 63.816406 43.875 64.042969 43.574219 64.269531 43.246094 C 64.484375 43.722656 64.761719 44.09375 65.101562 44.355469 C 65.441406 44.617188 65.800781 44.777344 66.175781 44.824219 C 66.554688 44.875 66.9375 44.824219 67.328125 44.664062 C 67.71875 44.507812 68.070312 44.242188 68.382812 43.867188 C 68.589844 43.636719 68.785156 43.375 68.96875 43.085938 C 69.046875 43.21875 69.132812 43.351562 69.222656 43.472656 C 69.53125 43.875 69.949219 44.148438 70.480469 44.300781 C 71.046875 44.449219 71.597656 44.476562 72.140625 44.375 C 72.679688 44.273438 73.195312 44.09375 73.6875 43.828125 C 74.175781 43.566406 74.632812 43.25 75.054688 42.878906 C 75.476562 42.511719 75.84375 42.125 76.160156 41.722656 C 76.144531 42.011719 76.140625 42.285156 76.140625 42.542969 C 76.140625 42.796875 76.132812 43.078125 76.121094 43.378906 C 75.492188 43.816406 74.898438 44.34375 74.339844 44.957031 C 73.777344 45.570312 73.289062 46.226562 72.867188 46.921875 C 72.445312 47.617188 72.113281 48.324219 71.875 49.039062 C 71.636719 49.753906 71.519531 50.417969 71.527344 51.039062 C 71.53125 51.660156 71.679688 52.203125 71.96875 52.664062 C 72.257812 53.128906 72.730469 53.460938 73.386719 53.664062 C 74.066406 53.875 74.660156 53.882812 75.179688 53.679688 C 75.695312 53.480469 76.144531 53.148438 76.527344 52.683594 C 76.910156 52.222656 77.226562 51.660156 77.46875 51.003906 C 77.714844 50.34375 77.910156 49.65625 78.054688 48.945312 C 78.199219 48.230469 78.289062 47.527344 78.328125 46.835938 C 78.367188 46.148438 78.367188 45.535156 78.328125 44.996094 C 79.410156 44.542969 80.296875 43.972656 80.988281 43.285156 C 81.679688 42.59375 82.253906 41.867188 82.707031 41.101562 C 82.84375 40.914062 82.890625 40.691406 82.847656 40.425781 C 82.804688 40.164062 82.699219 39.9375 82.527344 39.75 Z M 82.527344 39.75 "/>
<path style=" stroke:none;fill-rule:evenodd;fill:rgb(5.098039%,4.705882%,13.72549%);fill-opacity:1;" d="M 106.328125 38.546875 C 106.367188 38.257812 106.425781 37.953125 106.5 37.636719 C 106.574219 37.316406 106.671875 37.003906 106.78125 36.703125 C 106.894531 36.402344 107.027344 36.144531 107.179688 35.925781 C 107.332031 35.703125 107.492188 35.546875 107.660156 35.453125 C 107.832031 35.359375 108.003906 35.371094 108.179688 35.480469 C 108.367188 35.59375 108.484375 35.832031 108.527344 36.195312 C 108.574219 36.558594 108.527344 36.949219 108.398438 37.363281 C 108.265625 37.777344 108.027344 38.164062 107.6875 38.527344 C 107.347656 38.890625 106.890625 39.128906 106.3125 39.242188 C 106.285156 39.066406 106.292969 38.835938 106.328125 38.546875 Z M 112.867188 39.316406 C 112.660156 39.253906 112.464844 39.25 112.273438 39.296875 C 112.085938 39.347656 111.964844 39.480469 111.914062 39.695312 C 111.816406 40.09375 111.652344 40.503906 111.433594 40.925781 C 111.214844 41.34375 110.945312 41.742188 110.621094 42.121094 C 110.300781 42.496094 109.941406 42.828125 109.539062 43.117188 C 109.136719 43.402344 108.714844 43.609375 108.273438 43.734375 C 107.832031 43.875 107.46875 43.890625 107.179688 43.78125 C 106.890625 43.675781 106.660156 43.496094 106.492188 43.238281 C 106.320312 42.980469 106.199219 42.671875 106.121094 42.308594 C 106.046875 41.945312 106.003906 41.566406 105.992188 41.179688 C 106.707031 41.230469 107.347656 41.101562 107.90625 40.792969 C 108.464844 40.488281 108.941406 40.078125 109.332031 39.570312 C 109.71875 39.0625 110.015625 38.492188 110.21875 37.859375 C 110.417969 37.226562 110.53125 36.597656 110.558594 35.972656 C 110.570312 35.382812 110.480469 34.882812 110.292969 34.476562 C 110.105469 34.070312 109.847656 33.753906 109.527344 33.527344 C 109.207031 33.300781 108.839844 33.167969 108.425781 33.132812 C 108.007812 33.09375 107.589844 33.152344 107.160156 33.300781 C 106.644531 33.476562 106.207031 33.761719 105.847656 34.15625 C 105.492188 34.550781 105.191406 35.007812 104.953125 35.527344 C 104.714844 36.050781 104.523438 36.609375 104.386719 37.210938 C 104.246094 37.8125 104.148438 38.40625 104.085938 38.988281 C 104.027344 39.511719 103.996094 40.011719 103.988281 40.496094 C 103.960938 40.554688 103.933594 40.613281 103.90625 40.679688 C 103.710938 41.125 103.484375 41.5625 103.226562 41.988281 C 102.96875 42.414062 102.683594 42.769531 102.367188 43.058594 C 102.054688 43.347656 101.726562 43.449219 101.386719 43.359375 C 101.183594 43.308594 101.074219 43.078125 101.054688 42.664062 C 101.039062 42.25 101.058594 41.738281 101.121094 41.121094 C 101.183594 40.507812 101.257812 39.84375 101.339844 39.128906 C 101.421875 38.414062 101.460938 37.730469 101.460938 37.082031 C 101.460938 36.515625 101.355469 35.972656 101.140625 35.453125 C 100.925781 34.933594 100.632812 34.5 100.261719 34.15625 C 99.890625 33.8125 99.460938 33.582031 98.972656 33.46875 C 98.480469 33.355469 97.953125 33.433594 97.386719 33.695312 C 96.820312 33.960938 96.371094 34.328125 96.035156 34.804688 C 95.703125 35.28125 95.398438 35.78125 95.121094 36.308594 C 95.019531 35.90625 94.871094 35.535156 94.679688 35.191406 C 94.484375 34.847656 94.246094 34.546875 93.960938 34.289062 C 93.679688 34.03125 93.359375 33.832031 93.007812 33.6875 C 92.65625 33.542969 92.285156 33.46875 91.894531 33.46875 C 91.515625 33.46875 91.167969 33.542969 90.847656 33.6875 C 90.527344 33.832031 90.234375 34.015625 89.96875 34.242188 C 89.707031 34.46875 89.46875 34.71875 89.253906 35.003906 C 89.039062 35.285156 88.851562 35.5625 88.6875 35.839844 C 88.660156 35.511719 88.632812 35.226562 88.601562 34.984375 C 88.570312 34.738281 88.515625 34.53125 88.433594 34.363281 C 88.351562 34.195312 88.234375 34.066406 88.082031 33.976562 C 87.933594 33.890625 87.71875 33.847656 87.441406 33.847656 C 87.304688 33.847656 87.164062 33.875 87.027344 33.929688 C 86.886719 33.988281 86.765625 34.066406 86.660156 34.164062 C 86.550781 34.265625 86.46875 34.386719 86.414062 34.53125 C 86.355469 34.675781 86.339844 34.84375 86.367188 35.03125 C 86.378906 35.167969 86.414062 35.335938 86.46875 35.527344 C 86.527344 35.722656 86.578125 35.976562 86.628906 36.289062 C 86.679688 36.605469 86.722656 36.984375 86.753906 37.429688 C 86.785156 37.875 86.792969 38.417969 86.78125 39.0625 C 86.769531 39.710938 86.722656 40.464844 86.640625 41.328125 C 86.558594 42.195312 86.429688 43.195312 86.253906 44.335938 C 86.226562 44.601562 86.328125 44.8125 86.554688 44.976562 C 86.78125 45.140625 87.039062 45.234375 87.328125 45.257812 C 87.617188 45.285156 87.890625 45.234375 88.148438 45.109375 C 88.40625 44.984375 88.554688 44.765625 88.59375 44.449219 C 88.628906 43.863281 88.703125 43.234375 88.808594 42.570312 C 88.917969 41.90625 89.046875 41.25 89.207031 40.597656 C 89.363281 39.945312 89.542969 39.324219 89.742188 38.734375 C 89.945312 38.144531 90.167969 37.625 90.414062 37.175781 C 90.660156 36.722656 90.914062 36.363281 91.179688 36.09375 C 91.441406 35.824219 91.71875 35.6875 92.007812 35.6875 C 92.359375 35.6875 92.632812 35.847656 92.828125 36.167969 C 93.023438 36.488281 93.160156 36.898438 93.242188 37.398438 C 93.324219 37.902344 93.363281 38.449219 93.359375 39.046875 C 93.351562 39.640625 93.324219 40.214844 93.28125 40.765625 C 93.238281 41.316406 93.1875 41.808594 93.128906 42.242188 C 93.074219 42.671875 93.035156 42.972656 93.007812 43.132812 C 93.007812 43.421875 93.117188 43.652344 93.339844 43.820312 C 93.558594 43.988281 93.804688 44.089844 94.074219 44.121094 C 94.34375 44.152344 94.597656 44.101562 94.839844 43.972656 C 95.078125 43.839844 95.214844 43.617188 95.253906 43.304688 C 95.378906 42.402344 95.550781 41.496094 95.773438 40.585938 C 95.992188 39.679688 96.242188 38.863281 96.527344 38.144531 C 96.808594 37.421875 97.125 36.832031 97.472656 36.375 C 97.816406 35.917969 98.183594 35.6875 98.574219 35.6875 C 98.777344 35.6875 98.929688 35.828125 99.035156 36.101562 C 99.144531 36.378906 99.199219 36.753906 99.199219 37.230469 C 99.199219 37.582031 99.167969 37.941406 99.113281 38.3125 C 99.054688 38.679688 98.988281 39.0625 98.914062 39.457031 C 98.839844 39.855469 98.773438 40.257812 98.714844 40.671875 C 98.660156 41.085938 98.632812 41.515625 98.632812 41.96875 C 98.632812 42.28125 98.664062 42.644531 98.726562 43.058594 C 98.789062 43.472656 98.90625 43.863281 99.085938 44.234375 C 99.261719 44.605469 99.503906 44.917969 99.8125 45.175781 C 100.117188 45.429688 100.511719 45.558594 100.988281 45.558594 C 101.707031 45.558594 102.34375 45.40625 102.894531 45.097656 C 103.449219 44.792969 103.925781 44.390625 104.320312 43.894531 C 104.339844 43.871094 104.359375 43.84375 104.378906 43.816406 C 104.410156 43.890625 104.4375 43.96875 104.472656 44.035156 C 104.742188 44.589844 105.109375 45.015625 105.574219 45.316406 C 106.039062 45.617188 106.589844 45.78125 107.21875 45.8125 C 107.847656 45.84375 108.53125 45.730469 109.273438 45.464844 C 109.828125 45.265625 110.308594 45.015625 110.71875 44.714844 C 111.125 44.414062 111.492188 44.046875 111.820312 43.613281 C 112.148438 43.179688 112.445312 42.683594 112.71875 42.121094 C 112.988281 41.554688 113.261719 40.910156 113.539062 40.183594 C 113.589844 39.980469 113.542969 39.804688 113.398438 39.648438 C 113.253906 39.488281 113.074219 39.378906 112.867188 39.316406 Z M 112.867188 39.316406 "/>
<path style=" stroke:none;fill-rule:evenodd;fill:rgb(5.098039%,4.705882%,13.72549%);fill-opacity:1;" d="M 123.125 37.21875 C 123.0625 37.589844 122.976562 38 122.871094 38.441406 C 122.761719 38.886719 122.628906 39.347656 122.464844 39.824219 C 122.300781 40.300781 122.097656 40.730469 121.859375 41.113281 C 121.621094 41.496094 121.347656 41.796875 121.039062 42.023438 C 120.730469 42.25 120.375 42.34375 119.972656 42.304688 C 119.773438 42.28125 119.617188 42.144531 119.511719 41.894531 C 119.402344 41.640625 119.347656 41.324219 119.339844 40.933594 C 119.335938 40.546875 119.367188 40.121094 119.445312 39.65625 C 119.519531 39.191406 119.636719 38.738281 119.792969 38.292969 C 119.949219 37.847656 120.140625 37.4375 120.367188 37.0625 C 120.59375 36.683594 120.855469 36.394531 121.152344 36.1875 C 121.449219 35.980469 121.773438 35.882812 122.125 35.894531 C 122.476562 35.90625 122.851562 36.082031 123.257812 36.421875 C 123.230469 36.585938 123.1875 36.851562 123.125 37.21875 Z M 129.832031 38.660156 C 129.636719 38.558594 129.4375 38.535156 129.226562 38.59375 C 129.019531 38.648438 128.871094 38.839844 128.785156 39.167969 C 128.734375 39.519531 128.621094 39.929688 128.445312 40.40625 C 128.269531 40.882812 128.050781 41.335938 127.792969 41.761719 C 127.535156 42.1875 127.242188 42.542969 126.90625 42.824219 C 126.574219 43.105469 126.21875 43.234375 125.839844 43.207031 C 125.527344 43.183594 125.304688 43.023438 125.179688 42.730469 C 125.054688 42.433594 124.988281 42.066406 124.984375 41.621094 C 124.976562 41.175781 125.019531 40.675781 125.113281 40.117188 C 125.210938 39.558594 125.324219 39.003906 125.453125 38.453125 C 125.585938 37.902344 125.722656 37.371094 125.859375 36.863281 C 126 36.355469 126.113281 35.925781 126.199219 35.574219 C 126.300781 35.261719 126.269531 34.996094 126.105469 34.777344 C 125.941406 34.558594 125.738281 34.398438 125.492188 34.304688 C 125.246094 34.210938 124.996094 34.1875 124.746094 34.230469 C 124.496094 34.273438 124.332031 34.410156 124.257812 34.636719 C 123.511719 33.996094 122.800781 33.652344 122.113281 33.601562 C 121.429688 33.550781 120.796875 33.703125 120.21875 34.050781 C 119.640625 34.402344 119.125 34.910156 118.679688 35.574219 C 118.234375 36.238281 117.871094 36.964844 117.59375 37.746094 C 117.320312 38.53125 117.144531 39.328125 117.078125 40.144531 C 117.007812 40.960938 117.058594 41.703125 117.238281 42.371094 C 117.414062 43.042969 117.722656 43.589844 118.171875 44.015625 C 118.617188 44.445312 119.222656 44.65625 119.992188 44.65625 C 120.332031 44.65625 120.660156 44.585938 120.972656 44.449219 C 121.285156 44.3125 121.578125 44.148438 121.839844 43.960938 C 122.105469 43.773438 122.335938 43.574219 122.539062 43.367188 C 122.738281 43.160156 122.898438 42.988281 123.011719 42.851562 C 123.097656 43.304688 123.242188 43.683594 123.445312 44 C 123.644531 44.3125 123.875 44.570312 124.132812 44.769531 C 124.390625 44.96875 124.660156 45.117188 124.945312 45.210938 C 125.226562 45.304688 125.5 45.351562 125.765625 45.351562 C 126.355469 45.351562 126.910156 45.152344 127.425781 44.75 C 127.941406 44.351562 128.40625 43.859375 128.8125 43.273438 C 129.222656 42.691406 129.558594 42.078125 129.824219 41.433594 C 130.085938 40.785156 130.261719 40.214844 130.351562 39.710938 C 130.4375 39.523438 130.421875 39.328125 130.304688 39.121094 C 130.183594 38.914062 130.027344 38.757812 129.832031 38.660156 Z M 129.832031 38.660156 "/>
<path style=" stroke:none;fill-rule:evenodd;fill:rgb(5.098039%,4.705882%,13.72549%);fill-opacity:1;" d="M 163.796875 49.039062 C 163.691406 49.464844 163.523438 49.824219 163.296875 50.121094 C 163.070312 50.414062 162.789062 50.566406 162.449219 50.582031 C 162.234375 50.59375 162.070312 50.480469 161.957031 50.242188 C 161.84375 50.003906 161.765625 49.695312 161.722656 49.320312 C 161.675781 48.945312 161.660156 48.523438 161.664062 48.0625 C 161.671875 47.597656 161.691406 47.140625 161.722656 46.6875 C 161.753906 46.238281 161.789062 45.816406 161.835938 45.429688 C 161.878906 45.039062 161.914062 44.738281 161.9375 44.527344 C 162.367188 44.578125 162.722656 44.761719 163.003906 45.082031 C 163.289062 45.402344 163.503906 45.78125 163.65625 46.21875 C 163.808594 46.65625 163.894531 47.128906 163.921875 47.636719 C 163.945312 48.144531 163.902344 48.613281 163.796875 49.039062 Z M 156.964844 49.039062 C 156.859375 49.464844 156.691406 49.824219 156.464844 50.121094 C 156.242188 50.414062 155.957031 50.566406 155.617188 50.582031 C 155.402344 50.59375 155.238281 50.480469 155.128906 50.242188 C 155.011719 50.003906 154.933594 49.695312 154.890625 49.320312 C 154.847656 48.945312 154.828125 48.523438 154.835938 48.0625 C 154.839844 47.597656 154.859375 47.140625 154.890625 46.6875 C 154.921875 46.238281 154.960938 45.816406 155.003906 45.429688 C 155.046875 45.039062 155.082031 44.738281 155.109375 44.527344 C 155.535156 44.578125 155.890625 44.761719 156.175781 45.082031 C 156.457031 45.402344 156.675781 45.78125 156.824219 46.21875 C 156.976562 46.65625 157.0625 47.128906 157.089844 47.636719 C 157.113281 48.144531 157.074219 48.613281 156.964844 49.039062 Z M 149.957031 38.359375 C 149.945312 38.660156 149.914062 38.925781 149.871094 39.160156 C 149.828125 39.390625 149.769531 39.539062 149.691406 39.601562 C 149.554688 39.523438 149.382812 39.332031 149.183594 39.015625 C 148.980469 38.703125 148.824219 38.351562 148.710938 37.953125 C 148.597656 37.558594 148.5625 37.171875 148.609375 36.789062 C 148.652344 36.40625 148.847656 36.109375 149.203125 35.894531 C 149.339844 35.820312 149.460938 35.847656 149.558594 35.980469 C 149.660156 36.113281 149.742188 36.304688 149.804688 36.554688 C 149.867188 36.804688 149.914062 37.09375 149.9375 37.417969 C 149.964844 37.746094 149.96875 38.058594 149.957031 38.359375 Z M 148.285156 42.109375 C 148.089844 42.316406 147.875 42.496094 147.636719 42.644531 C 147.398438 42.796875 147.152344 42.910156 146.898438 42.984375 C 146.648438 43.058594 146.421875 43.078125 146.21875 43.039062 C 145.652344 42.929688 145.21875 42.683594 144.917969 42.308594 C 144.617188 41.933594 144.425781 41.488281 144.34375 40.980469 C 144.261719 40.472656 144.269531 39.933594 144.371094 39.355469 C 144.472656 38.78125 144.640625 38.242188 144.878906 37.75 C 145.121094 37.253906 145.410156 36.828125 145.75 36.46875 C 146.089844 36.113281 146.460938 35.890625 146.863281 35.800781 C 146.710938 36.441406 146.660156 37.101562 146.710938 37.785156 C 146.761719 38.46875 146.925781 39.113281 147.203125 39.714844 C 147.378906 40.078125 147.589844 40.410156 147.832031 40.710938 C 148.078125 41.011719 148.378906 41.265625 148.730469 41.480469 C 148.628906 41.695312 148.480469 41.902344 148.285156 42.109375 Z M 169.164062 38.546875 C 169.203125 38.257812 169.261719 37.953125 169.335938 37.636719 C 169.410156 37.316406 169.503906 37.003906 169.617188 36.703125 C 169.730469 36.402344 169.863281 36.144531 170.015625 35.925781 C 170.164062 35.707031 170.324219 35.546875 170.496094 35.453125 C 170.664062 35.359375 170.839844 35.371094 171.015625 35.484375 C 171.203125 35.59375 171.320312 35.832031 171.363281 36.195312 C 171.40625 36.5625 171.363281 36.949219 171.230469 37.363281 C 171.101562 37.777344 170.863281 38.164062 170.523438 38.527344 C 170.183594 38.890625 169.726562 39.128906 169.148438 39.242188 C 169.121094 39.066406 169.128906 38.835938 169.164062 38.546875 Z M 176.769531 38.546875 C 176.808594 38.257812 176.863281 37.953125 176.941406 37.636719 C 177.015625 37.316406 177.109375 37.003906 177.222656 36.703125 C 177.335938 36.402344 177.46875 36.144531 177.621094 35.925781 C 177.769531 35.707031 177.929688 35.546875 178.101562 35.453125 C 178.269531 35.359375 178.445312 35.371094 178.621094 35.484375 C 178.808594 35.59375 178.925781 35.832031 178.96875 36.195312 C 179.011719 36.5625 178.96875 36.949219 178.835938 37.363281 C 178.703125 37.777344 178.46875 38.164062 178.128906 38.527344 C 177.789062 38.890625 177.328125 39.128906 176.75 39.242188 C 176.726562 39.066406 176.734375 38.835938 176.769531 38.546875 Z M 183.835938 39.648438 C 183.691406 39.492188 183.515625 39.382812 183.308594 39.316406 C 183.101562 39.253906 182.902344 39.25 182.714844 39.300781 C 182.527344 39.351562 182.40625 39.480469 182.355469 39.695312 C 182.253906 40.09375 182.09375 40.507812 181.875 40.925781 C 181.65625 41.347656 181.382812 41.742188 181.0625 42.121094 C 180.742188 42.496094 180.378906 42.828125 179.976562 43.117188 C 179.574219 43.40625 179.152344 43.613281 178.714844 43.738281 C 178.273438 43.875 177.910156 43.890625 177.621094 43.785156 C 177.328125 43.675781 177.101562 43.496094 176.929688 43.238281 C 176.761719 42.980469 176.636719 42.671875 176.5625 42.308594 C 176.488281 41.945312 176.441406 41.570312 176.429688 41.179688 C 177.148438 41.230469 177.785156 41.101562 178.347656 40.792969 C 178.90625 40.488281 179.378906 40.078125 179.769531 39.570312 C 180.160156 39.066406 180.457031 38.496094 180.65625 37.859375 C 180.859375 37.226562 180.972656 36.597656 180.996094 35.972656 C 181.007812 35.382812 180.921875 34.882812 180.734375 34.476562 C 180.542969 34.070312 180.289062 33.753906 179.96875 33.527344 C 179.648438 33.300781 179.28125 33.171875 178.863281 33.132812 C 178.449219 33.09375 178.027344 33.152344 177.601562 33.300781 C 177.085938 33.476562 176.648438 33.761719 176.289062 34.15625 C 175.929688 34.550781 175.632812 35.011719 175.394531 35.53125 C 175.152344 36.050781 174.964844 36.609375 174.828125 37.210938 C 174.6875 37.8125 174.585938 38.40625 174.523438 38.988281 C 174.464844 39.554688 174.429688 40.097656 174.421875 40.613281 C 174.375 40.71875 174.324219 40.820312 174.269531 40.925781 C 174.050781 41.347656 173.78125 41.742188 173.457031 42.121094 C 173.136719 42.496094 172.777344 42.828125 172.375 43.117188 C 171.972656 43.40625 171.550781 43.613281 171.109375 43.738281 C 170.667969 43.875 170.304688 43.890625 170.015625 43.785156 C 169.726562 43.675781 169.496094 43.496094 169.324219 43.238281 C 169.15625 42.980469 169.035156 42.671875 168.957031 42.308594 C 168.882812 41.945312 168.839844 41.570312 168.824219 41.179688 C 169.542969 41.230469 170.179688 41.101562 170.742188 40.792969 C 171.300781 40.488281 171.777344 40.078125 172.164062 39.570312 C 172.554688 39.066406 172.851562 38.496094 173.054688 37.859375 C 173.253906 37.226562 173.367188 36.597656 173.390625 35.972656 C 173.40625 35.382812 173.316406 34.882812 173.128906 34.476562 C 172.941406 34.070312 172.683594 33.753906 172.363281 33.527344 C 172.042969 33.300781 171.675781 33.171875 171.261719 33.132812 C 170.84375 33.09375 170.421875 33.152344 169.996094 33.300781 C 169.480469 33.476562 169.042969 33.761719 168.683594 34.15625 C 168.324219 34.550781 168.027344 35.011719 167.789062 35.53125 C 167.550781 36.050781 167.359375 36.609375 167.222656 37.210938 C 167.082031 37.8125 166.984375 38.40625 166.921875 38.988281 C 166.882812 39.316406 166.859375 39.636719 166.84375 39.949219 C 166.722656 40.050781 166.601562 40.15625 166.476562 40.257812 C 166.042969 40.609375 165.585938 40.925781 165.109375 41.207031 C 164.628906 41.488281 164.132812 41.722656 163.617188 41.902344 C 163.101562 42.085938 162.574219 42.195312 162.03125 42.234375 L 163.203125 29.75 C 163.277344 29.484375 163.242188 29.253906 163.089844 29.050781 C 162.9375 28.851562 162.742188 28.714844 162.503906 28.640625 C 162.265625 28.5625 162.011719 28.570312 161.742188 28.65625 C 161.46875 28.746094 161.246094 28.945312 161.070312 29.257812 C 160.984375 29.734375 160.890625 30.386719 160.796875 31.214844 C 160.703125 32.042969 160.609375 32.945312 160.515625 33.921875 C 160.421875 34.898438 160.324219 35.910156 160.230469 36.949219 C 160.136719 37.988281 160.054688 38.960938 159.984375 39.863281 C 159.984375 39.902344 159.980469 39.941406 159.976562 39.980469 C 159.867188 40.074219 159.761719 40.167969 159.644531 40.257812 C 159.210938 40.609375 158.757812 40.925781 158.277344 41.207031 C 157.800781 41.488281 157.304688 41.722656 156.789062 41.902344 C 156.273438 42.085938 155.742188 42.195312 155.203125 42.234375 L 156.371094 29.75 C 156.449219 29.484375 156.410156 29.253906 156.257812 29.050781 C 156.109375 28.851562 155.914062 28.714844 155.675781 28.640625 C 155.433594 28.5625 155.179688 28.570312 154.910156 28.65625 C 154.640625 28.746094 154.414062 28.945312 154.238281 29.257812 C 154.152344 29.734375 154.058594 30.386719 153.964844 31.214844 C 153.871094 32.042969 153.777344 32.945312 153.683594 33.921875 C 153.589844 34.898438 153.496094 35.910156 153.398438 36.949219 C 153.304688 37.988281 153.222656 38.960938 153.15625 39.863281 C 153.152344 39.882812 153.152344 39.898438 153.152344 39.917969 C 152.953125 40.007812 152.738281 40.085938 152.503906 40.15625 C 152.265625 40.222656 151.996094 40.265625 151.691406 40.277344 C 151.742188 40.050781 151.785156 39.800781 151.816406 39.523438 C 151.847656 39.25 151.871094 38.960938 151.890625 38.660156 C 151.910156 38.359375 151.914062 38.058594 151.910156 37.757812 C 151.902344 37.457031 151.886719 37.179688 151.863281 36.929688 C 151.800781 36.390625 151.683594 35.878906 151.511719 35.398438 C 151.34375 34.914062 151.113281 34.511719 150.824219 34.183594 C 150.535156 33.859375 150.171875 33.640625 149.738281 33.527344 C 149.304688 33.414062 148.800781 33.453125 148.21875 33.640625 C 147.363281 33.527344 146.59375 33.605469 145.910156 33.875 C 145.222656 34.144531 144.628906 34.535156 144.125 35.050781 C 143.621094 35.5625 143.210938 36.167969 142.890625 36.863281 C 142.570312 37.558594 142.355469 38.273438 142.246094 39.007812 C 142.203125 39.320312 142.179688 39.628906 142.175781 39.9375 C 141.980469 40.335938 141.765625 40.679688 141.53125 40.972656 C 141.199219 41.386719 140.851562 41.726562 140.492188 41.988281 C 140.136719 42.25 139.78125 42.453125 139.425781 42.589844 C 139.074219 42.726562 138.761719 42.820312 138.484375 42.871094 C 138.15625 42.933594 137.84375 42.941406 137.539062 42.890625 C 137.238281 42.839844 136.960938 42.695312 136.710938 42.457031 C 136.507812 42.28125 136.355469 42 136.246094 41.613281 C 136.140625 41.222656 136.078125 40.78125 136.058594 40.285156 C 136.039062 39.792969 136.058594 39.273438 136.117188 38.734375 C 136.171875 38.195312 136.269531 37.6875 136.410156 37.203125 C 136.546875 36.71875 136.722656 36.289062 136.9375 35.90625 C 137.148438 35.523438 137.402344 35.25 137.691406 35.089844 C 137.855469 35.113281 137.957031 35.210938 137.992188 35.378906 C 138.03125 35.546875 138.039062 35.75 138.023438 35.980469 C 138.003906 36.214844 137.972656 36.449219 137.9375 36.695312 C 137.898438 36.941406 137.878906 37.144531 137.878906 37.304688 C 137.941406 37.644531 138.066406 37.90625 138.246094 38.097656 C 138.429688 38.285156 138.636719 38.394531 138.863281 38.425781 C 139.089844 38.457031 139.3125 38.402344 139.53125 38.265625 C 139.75 38.128906 139.929688 37.90625 140.070312 37.605469 C 140.082031 37.621094 140.101562 37.625 140.125 37.625 L 140.390625 35.238281 C 140.464844 34.914062 140.414062 34.625 140.238281 34.375 C 140.0625 34.121094 139.828125 33.976562 139.539062 33.941406 C 139.175781 33.414062 138.683594 33.136719 138.058594 33.105469 C 137.4375 33.074219 136.796875 33.277344 136.144531 33.714844 C 135.742188 34.003906 135.386719 34.402344 135.078125 34.910156 C 134.769531 35.417969 134.519531 35.980469 134.324219 36.601562 C 134.128906 37.222656 133.988281 37.878906 133.90625 38.566406 C 133.824219 39.253906 133.808594 39.925781 133.859375 40.578125 C 133.910156 41.230469 134.027344 41.84375 134.210938 42.421875 C 134.390625 42.996094 134.648438 43.480469 134.972656 43.867188 C 135.25 44.207031 135.566406 44.453125 135.917969 44.609375 C 136.269531 44.769531 136.636719 44.863281 137.023438 44.902344 C 137.40625 44.941406 137.785156 44.925781 138.164062 44.855469 C 138.539062 44.785156 138.898438 44.691406 139.238281 44.5625 C 139.679688 44.402344 140.132812 44.195312 140.597656 43.945312 C 141.0625 43.691406 141.507812 43.390625 141.9375 43.039062 C 142.160156 42.855469 142.378906 42.65625 142.589844 42.4375 C 142.683594 42.675781 142.789062 42.902344 142.917969 43.117188 C 143.257812 43.679688 143.71875 44.136719 144.296875 44.488281 C 144.875 44.839844 145.585938 45.007812 146.429688 44.996094 C 147.335938 44.984375 148.171875 44.753906 148.9375 44.308594 C 149.703125 43.867188 150.335938 43.210938 150.824219 42.34375 C 151.558594 42.34375 152.28125 42.222656 152.992188 41.984375 C 152.988281 42.0625 152.980469 42.140625 152.976562 42.214844 C 152.925781 42.878906 152.898438 43.328125 152.898438 43.566406 C 152.886719 43.980469 152.859375 44.492188 152.816406 45.097656 C 152.773438 45.707031 152.742188 46.347656 152.730469 47.015625 C 152.71875 47.6875 152.742188 48.363281 152.804688 49.046875 C 152.867188 49.730469 153 50.351562 153.203125 50.910156 C 153.402344 51.46875 153.691406 51.941406 154.058594 52.328125 C 154.429688 52.71875 154.917969 52.949219 155.523438 53.023438 C 156.164062 53.113281 156.71875 53 157.183594 52.6875 C 157.648438 52.371094 158.027344 51.945312 158.316406 51.398438 C 158.605469 50.851562 158.808594 50.222656 158.929688 49.507812 C 159.046875 48.792969 159.082031 48.078125 159.03125 47.355469 C 158.984375 46.636719 158.851562 45.957031 158.636719 45.316406 C 158.421875 44.675781 158.128906 44.148438 157.75 43.738281 C 157.976562 43.675781 158.246094 43.554688 158.5625 43.378906 C 158.875 43.203125 159.199219 43.007812 159.53125 42.785156 C 159.613281 42.734375 159.695312 42.675781 159.777344 42.621094 C 159.746094 43.066406 159.730469 43.382812 159.730469 43.566406 C 159.71875 43.980469 159.691406 44.492188 159.644531 45.097656 C 159.601562 45.707031 159.574219 46.347656 159.5625 47.015625 C 159.550781 47.6875 159.574219 48.363281 159.636719 49.046875 C 159.699219 49.730469 159.832031 50.351562 160.03125 50.910156 C 160.234375 51.46875 160.519531 51.941406 160.890625 52.328125 C 161.261719 52.71875 161.75 52.949219 162.355469 53.023438 C 162.996094 53.113281 163.550781 53 164.015625 52.6875 C 164.480469 52.371094 164.855469 51.945312 165.148438 51.398438 C 165.4375 50.851562 165.640625 50.222656 165.761719 49.507812 C 165.878906 48.792969 165.914062 48.078125 165.863281 47.355469 C 165.8125 46.636719 165.679688 45.957031 165.46875 45.316406 C 165.253906 44.675781 164.957031 44.148438 164.582031 43.738281 C 164.808594 43.675781 165.078125 43.554688 165.390625 43.378906 C 165.707031 43.203125 166.03125 43.007812 166.363281 42.785156 C 166.535156 42.671875 166.710938 42.554688 166.882812 42.433594 C 166.945312 43.046875 167.085938 43.585938 167.308594 44.039062 C 167.578125 44.589844 167.945312 45.015625 168.410156 45.316406 C 168.875 45.617188 169.421875 45.78125 170.054688 45.8125 C 170.679688 45.84375 171.367188 45.730469 172.109375 45.464844 C 172.664062 45.265625 173.144531 45.015625 173.554688 44.714844 C 173.960938 44.414062 174.328125 44.046875 174.65625 43.613281 C 174.675781 43.589844 174.695312 43.5625 174.710938 43.535156 C 174.769531 43.710938 174.835938 43.882812 174.910156 44.039062 C 175.183594 44.589844 175.550781 45.015625 176.015625 45.316406 C 176.480469 45.617188 177.027344 45.78125 177.65625 45.8125 C 178.285156 45.84375 178.972656 45.730469 179.714844 45.464844 C 180.265625 45.265625 180.75 45.015625 181.15625 44.714844 C 181.566406 44.414062 181.933594 44.046875 182.261719 43.613281 C 182.589844 43.183594 182.886719 42.683594 183.15625 42.121094 C 183.429688 41.554688 183.703125 40.910156 183.976562 40.183594 C 184.027344 39.984375 183.980469 39.804688 183.835938 39.648438 Z M 183.835938 39.648438 "/>
<path style=" stroke:none;fill-rule:nonzero;fill:rgb(5.098039%,4.705882%,13.333333%);fill-opacity:1;" d="M 35.472656 28.324219 L 35.449219 28.308594 L 35.402344 28.296875 C 35.421875 28.3125 35.445312 28.320312 35.472656 28.324219 Z M 35.472656 28.324219 "/>
<path style=" stroke:none;fill-rule:nonzero;fill:rgb(5.098039%,4.705882%,13.333333%);fill-opacity:1;" d="M 35.785156 30.570312 L 35.761719 30.578125 Z M 35.785156 30.570312 "/>
<path style=" stroke:none;fill-rule:nonzero;fill:rgb(5.098039%,4.705882%,13.333333%);fill-opacity:1;" d="M 35.480469 28.320312 C 35.476562 28.320312 35.476562 28.320312 35.472656 28.316406 C 35.472656 28.320312 35.472656 28.320312 35.472656 28.324219 C 35.476562 28.324219 35.476562 28.320312 35.480469 28.320312 Z M 35.480469 28.320312 "/>
<path style=" stroke:none;fill-rule:nonzero;fill:rgb(5.098039%,4.705882%,13.333333%);fill-opacity:1;" d="M 35.472656 28.324219 L 35.476562 28.324219 L 35.476562 28.320312 Z M 35.472656 28.324219 "/>
<path style=" stroke:none;fill-rule:nonzero;fill:rgb(5.098039%,4.705882%,13.333333%);fill-opacity:1;" d="M 35.765625 30.566406 L 35.804688 30.546875 L 35.816406 30.539062 L 35.828125 30.527344 C 35.804688 30.535156 35.785156 30.550781 35.765625 30.566406 Z M 35.765625 30.566406 "/>
<path style=" stroke:none;fill-rule:nonzero;fill:rgb(5.098039%,4.705882%,13.333333%);fill-opacity:1;" d="M 35.535156 28.371094 L 35.5 28.339844 L 35.476562 28.324219 C 35.488281 28.347656 35.511719 28.363281 35.535156 28.371094 Z M 35.535156 28.371094 "/>
<path style=" stroke:none;fill-rule:nonzero;fill:rgb(5.098039%,4.705882%,13.333333%);fill-opacity:1;" d="M 26.585938 50.195312 C 26.554688 50.207031 26.53125 50.226562 26.511719 50.253906 L 26.535156 50.238281 C 26.550781 50.222656 26.570312 50.207031 26.585938 50.195312 Z M 26.585938 50.195312 "/>
<path style=" stroke:none;fill-rule:nonzero;fill:rgb(5.098039%,4.705882%,13.333333%);fill-opacity:1;" d="M 31.78125 49.171875 C 31.78125 49.140625 31.765625 49.148438 31.769531 49.261719 C 31.769531 49.253906 31.773438 49.242188 31.777344 49.234375 C 31.777344 49.214844 31.78125 49.195312 31.78125 49.171875 Z M 31.78125 49.171875 "/>
<path style=" stroke:none;fill-rule:nonzero;fill:rgb(5.098039%,4.705882%,13.333333%);fill-opacity:1;" d="M 31.242188 50.195312 C 31.214844 50.207031 31.1875 50.226562 31.167969 50.253906 L 31.191406 50.238281 C 31.207031 50.222656 31.230469 50.207031 31.242188 50.195312 Z M 31.242188 50.195312 "/>
<path style=" stroke:none;fill-rule:nonzero;fill:rgb(5.098039%,4.705882%,13.333333%);fill-opacity:1;" d="M 22.925781 50.4375 C 22.902344 50.421875 22.875 50.40625 22.847656 50.402344 C 22.871094 50.414062 22.894531 50.425781 22.910156 50.433594 Z M 22.925781 50.4375 "/>
<path style=" stroke:none;fill-rule:nonzero;fill:rgb(5.098039%,4.705882%,13.333333%);fill-opacity:1;" d="M 22.101562 49.648438 C 22.097656 49.617188 22.085938 49.585938 22.070312 49.554688 C 22.082031 49.585938 22.089844 49.617188 22.097656 49.648438 Z M 22.101562 49.648438 "/>
<path style=" stroke:none;fill-rule:nonzero;fill:rgb(100%,86.666667%,0%);fill-opacity:1;" d="M 27.632812 35.542969 C 26.503906 36.027344 25.21875 36.574219 23.554688 36.574219 C 22.859375 36.574219 22.167969 36.480469 21.5 36.292969 L 22.648438 48.101562 C 22.6875 48.59375 22.914062 49.054688 23.277344 49.390625 C 23.644531 49.726562 24.121094 49.914062 24.613281 49.914062 C 24.613281 49.914062 26.246094 49.996094 26.789062 49.996094 C 27.375 49.996094 29.132812 49.914062 29.132812 49.914062 C 29.628906 49.914062 30.105469 49.726562 30.46875 49.390625 C 30.832031 49.054688 31.058594 48.59375 31.097656 48.101562 L 32.332031 35.050781 C 31.78125 34.863281 31.222656 34.738281 30.597656 34.738281 C 29.515625 34.738281 28.640625 35.109375 27.632812 35.542969 Z M 27.632812 35.542969 "/>
<path style=" stroke:none;fill-rule:nonzero;fill:rgb(5.098039%,4.705882%,13.333333%);fill-opacity:1;" d="M 17.9375 30.503906 L 17.957031 30.523438 L 17.96875 30.53125 C 17.957031 30.519531 17.949219 30.511719 17.9375 30.503906 Z M 17.9375 30.503906 "/>
<path style=" stroke:none;fill-rule:nonzero;fill:rgb(5.098039%,4.705882%,13.333333%);fill-opacity:1;" d="M 37.648438 29.414062 L 37.476562 28.539062 C 37.320312 27.757812 36.96875 27.015625 36.164062 26.730469 C 35.90625 26.640625 35.613281 26.601562 35.414062 26.414062 C 35.21875 26.226562 35.160156 25.9375 35.113281 25.664062 C 35.027344 25.171875 34.949219 24.671875 34.863281 24.179688 C 34.785156 23.753906 34.726562 23.273438 34.53125 22.882812 C 34.277344 22.359375 33.75 22.054688 33.226562 21.851562 C 32.957031 21.75 32.683594 21.664062 32.40625 21.597656 C 31.09375 21.25 29.71875 21.125 28.371094 21.050781 C 26.753906 20.960938 25.132812 20.988281 23.515625 21.132812 C 22.316406 21.242188 21.050781 21.375 19.910156 21.789062 C 19.492188 21.941406 19.0625 22.125 18.746094 22.445312 C 18.355469 22.839844 18.230469 23.453125 18.515625 23.949219 C 18.714844 24.296875 19.058594 24.546875 19.421875 24.710938 C 19.894531 24.921875 20.386719 25.082031 20.894531 25.191406 C 22.304688 25.5 23.765625 25.625 25.207031 25.675781 C 26.800781 25.738281 28.402344 25.6875 29.992188 25.519531 C 30.382812 25.476562 30.777344 25.425781 31.167969 25.363281 C 31.628906 25.292969 31.925781 24.691406 31.789062 24.269531 C 31.625 23.769531 31.191406 23.574219 30.695312 23.648438 C 30.621094 23.660156 30.550781 23.671875 30.476562 23.679688 L 30.425781 23.6875 C 30.257812 23.710938 30.089844 23.730469 29.921875 23.75 C 29.578125 23.785156 29.230469 23.816406 28.882812 23.839844 C 28.105469 23.894531 27.324219 23.917969 26.542969 23.921875 C 25.777344 23.921875 25.011719 23.898438 24.246094 23.847656 C 23.894531 23.824219 23.546875 23.796875 23.199219 23.761719 C 23.042969 23.746094 22.886719 23.726562 22.726562 23.707031 L 22.578125 23.6875 L 22.546875 23.683594 L 22.390625 23.660156 C 22.070312 23.613281 21.753906 23.558594 21.441406 23.492188 C 21.410156 23.484375 21.378906 23.46875 21.359375 23.441406 C 21.339844 23.417969 21.328125 23.386719 21.328125 23.351562 C 21.328125 23.320312 21.339844 23.289062 21.359375 23.261719 C 21.378906 23.238281 21.410156 23.21875 21.441406 23.214844 L 21.445312 23.214844 C 21.71875 23.15625 21.992188 23.105469 22.269531 23.0625 C 22.359375 23.046875 22.453125 23.035156 22.542969 23.019531 L 22.546875 23.019531 C 22.71875 23.007812 22.890625 22.976562 23.0625 22.957031 C 24.554688 22.800781 26.058594 22.75 27.558594 22.800781 C 28.285156 22.820312 29.011719 22.863281 29.738281 22.9375 C 29.894531 22.953125 30.046875 22.96875 30.203125 22.988281 C 30.261719 22.996094 30.320312 23.003906 30.382812 23.011719 L 30.503906 23.027344 C 30.851562 23.082031 31.203125 23.144531 31.546875 23.21875 C 32.0625 23.332031 32.722656 23.367188 32.953125 23.929688 C 33.023438 24.109375 33.058594 24.308594 33.097656 24.496094 L 33.148438 24.734375 C 33.148438 24.738281 33.152344 24.742188 33.152344 24.75 C 33.273438 25.3125 33.394531 25.878906 33.515625 26.441406 C 33.523438 26.484375 33.523438 26.527344 33.515625 26.570312 C 33.507812 26.609375 33.492188 26.648438 33.464844 26.683594 C 33.441406 26.71875 33.410156 26.75 33.375 26.773438 C 33.335938 26.792969 33.296875 26.808594 33.253906 26.816406 L 33.25 26.816406 L 33.175781 26.824219 L 33.105469 26.835938 C 32.871094 26.863281 32.640625 26.894531 32.40625 26.917969 C 31.949219 26.972656 31.488281 27.015625 31.03125 27.054688 C 30.117188 27.128906 29.203125 27.179688 28.285156 27.203125 C 27.816406 27.214844 27.351562 27.222656 26.882812 27.222656 C 25.023438 27.21875 23.167969 27.113281 21.320312 26.898438 C 21.121094 26.875 20.921875 26.847656 20.722656 26.824219 C 20.875 26.84375 20.609375 26.808594 20.554688 26.800781 C 20.425781 26.78125 20.300781 26.765625 20.171875 26.746094 C 19.746094 26.679688 19.324219 26.601562 18.898438 26.53125 C 18.382812 26.449219 17.890625 26.492188 17.425781 26.746094 C 17.042969 26.953125 16.734375 27.273438 16.539062 27.664062 C 16.335938 28.078125 16.277344 28.53125 16.1875 28.976562 C 16.097656 29.421875 15.957031 29.902344 16.011719 30.359375 C 16.125 31.347656 16.816406 32.152344 17.808594 32.332031 C 18.746094 32.5 19.683594 32.636719 20.625 32.753906 C 24.328125 33.207031 28.066406 33.261719 31.78125 32.917969 C 32.082031 32.886719 32.386719 32.855469 32.6875 32.824219 C 32.78125 32.8125 32.875 32.824219 32.964844 32.855469 C 33.054688 32.886719 33.136719 32.9375 33.203125 33.003906 C 33.269531 33.070312 33.324219 33.152344 33.355469 33.242188 C 33.386719 33.332031 33.398438 33.425781 33.386719 33.519531 L 33.292969 34.433594 C 33.105469 36.28125 32.914062 38.128906 32.726562 39.972656 C 32.527344 41.914062 32.328125 43.851562 32.128906 45.789062 C 32.074219 46.335938 32.015625 46.882812 31.960938 47.429688 C 31.90625 47.964844 31.898438 48.519531 31.796875 49.050781 C 31.636719 49.886719 31.070312 50.398438 30.246094 50.585938 C 29.488281 50.757812 28.714844 50.847656 27.941406 50.855469 C 27.082031 50.859375 26.222656 50.824219 25.363281 50.828125 C 24.445312 50.832031 23.324219 50.746094 22.613281 50.066406 C 21.992188 49.464844 21.90625 48.527344 21.820312 47.714844 C 21.710938 46.640625 21.597656 45.566406 21.488281 44.492188 L 20.863281 38.515625 L 20.460938 34.648438 C 20.453125 34.585938 20.449219 34.523438 20.441406 34.457031 C 20.394531 33.996094 20.066406 33.546875 19.550781 33.566406 C 19.109375 33.585938 18.609375 33.960938 18.664062 34.457031 L 18.960938 37.324219 L 19.578125 43.253906 C 19.753906 44.9375 19.929688 46.621094 20.105469 48.304688 C 20.140625 48.628906 20.171875 48.953125 20.207031 49.273438 C 20.398438 51.039062 21.746094 51.988281 23.414062 52.257812 C 24.386719 52.414062 25.386719 52.445312 26.375 52.460938 C 27.640625 52.480469 28.921875 52.53125 30.167969 52.300781 C 32.015625 51.960938 33.402344 50.730469 33.597656 48.816406 C 33.65625 48.265625 33.710938 47.710938 33.769531 47.160156 C 33.957031 45.332031 34.144531 43.503906 34.332031 41.675781 L 34.941406 35.707031 L 35.222656 32.96875 C 35.238281 32.832031 35.292969 32.707031 35.386719 32.605469 C 35.480469 32.503906 35.601562 32.4375 35.734375 32.410156 C 36.261719 32.308594 36.769531 32.132812 37.144531 31.730469 C 37.742188 31.089844 37.859375 30.253906 37.648438 29.414062 Z M 17.78125 30.003906 C 17.789062 30 17.777344 30.070312 17.769531 30.101562 C 17.769531 30.054688 17.769531 30.011719 17.78125 30.003906 Z M 17.835938 30.402344 C 17.839844 30.398438 17.851562 30.414062 17.863281 30.433594 C 17.84375 30.417969 17.832031 30.402344 17.832031 30.402344 Z M 17.882812 30.46875 C 17.902344 30.5 17.914062 30.519531 17.882812 30.46875 Z M 17.984375 30.550781 L 17.988281 30.550781 C 17.988281 30.550781 17.992188 30.554688 17.996094 30.558594 C 17.992188 30.554688 17.988281 30.550781 17.984375 30.550781 Z M 35.710938 30.425781 C 35.519531 30.605469 35.234375 30.691406 34.953125 30.734375 C 31.785156 31.203125 28.570312 31.441406 25.367188 31.335938 C 23.074219 31.257812 20.808594 31.003906 18.539062 30.683594 C 18.316406 30.652344 18.074219 30.609375 17.921875 30.445312 C 17.632812 30.136719 17.777344 29.515625 17.851562 29.140625 C 17.917969 28.800781 18.050781 28.34375 18.457031 28.292969 C 19.09375 28.21875 19.832031 28.488281 20.460938 28.582031 C 21.214844 28.699219 21.976562 28.792969 22.738281 28.859375 C 25.992188 29.15625 29.300781 29.109375 32.539062 28.675781 C 33.128906 28.597656 33.71875 28.503906 34.304688 28.402344 C 34.824219 28.308594 35.402344 28.132812 35.71875 28.671875 C 35.9375 29.039062 35.964844 29.535156 35.929688 29.949219 C 35.921875 30.132812 35.84375 30.300781 35.710938 30.425781 Z M 35.710938 30.425781 "/>
</g>
</svg>
